<svg width="194" height="110" viewBox="0 0 194 110" fill="none" xmlns="http://www.w3.org/2000/svg">
<path d="M0.273438 80.6875V79.5938C0.273438 79.3854 0.377604 79.2812 0.585938 79.2812H1.44531C2.53906 79.2031 3.65885 79.1641 4.80469 79.1641C5.95052 79.138 6.99219 78.9948 7.92969 78.7344C10.0651 78.1094 11.1328 76.5469 11.1328 74.0469V32.875C11.1328 30.2969 9.60938 28.6562 6.5625 27.9531C5.70312 27.7708 4.83073 27.6146 3.94531 27.4844H3.125C2.91667 27.4844 2.8125 27.3802 2.8125 27.1719V26.2344C2.8125 26.026 2.91667 25.9219 3.125 25.9219H40.2734C40.7422 25.9219 41.0807 26.013 41.2891 26.1953C41.4974 26.3516 41.6276 26.7161 41.6797 27.2891L42.3828 38.6172C42.3828 38.8776 42.1875 39.0078 41.7969 39.0078C41.4062 39.0078 41.1198 38.8906 40.9375 38.6562C40.7812 38.3958 40.5729 37.4453 40.3125 35.8047C40.0781 34.1641 39.6354 32.7969 38.9844 31.7031C38.3333 30.6094 37.1875 29.9193 35.5469 29.6328H19.2578C18.9193 29.6328 18.75 29.8021 18.75 30.1406V50.3359C18.75 50.5964 18.8802 50.7266 19.1406 50.7266H32.6562C36.1458 50.7266 37.8906 48.6953 37.8906 44.6328C37.8906 44.4245 37.9948 44.3203 38.2031 44.3203H39.1406C39.349 44.3203 39.4531 44.4245 39.4531 44.6328V61.3516C39.4531 61.5599 39.349 61.6641 39.1406 61.6641H38.2031C37.9948 61.6641 37.8906 61.5599 37.8906 61.3516C37.8906 57.4974 36.7708 55.2708 34.5312 54.6719C33.9062 54.5156 33.2422 54.4375 32.5391 54.4375H19.1406C18.8802 54.4375 18.75 54.5677 18.75 54.8281V73.8516C18.75 75.8047 19.6484 76.9115 21.4453 77.1719C21.9661 77.25 22.513 77.2891 23.0859 77.2891H36.0938C38.776 77.2891 40.8594 76.1042 42.3438 73.7344C43.4115 72.0417 44.0625 70.1016 44.2969 67.9141C44.375 67.1849 44.7656 66.8203 45.4688 66.8203C45.7812 66.8203 45.9375 66.9896 45.9375 67.3281L44.6484 80.4531C44.4922 80.8177 44.3099 81 44.1016 81H0.585938C0.377604 81 0.273438 80.8958 0.273438 80.6875ZM59.2188 32.1719C59.2188 29.0469 57.4219 27.4844 53.8281 27.4844C53.2552 27.4844 52.9688 27.3802 52.9688 27.1719V26.2344C52.9688 26.026 53.0729 25.9219 53.2812 25.9219H72.8516C73.0599 25.9219 73.1641 26.026 73.1641 26.2344V27.1719C73.1641 27.3802 72.5911 27.4844 71.4453 27.4844C70.2995 27.4844 69.2448 27.849 68.2812 28.5781C67.3177 29.3073 66.8359 30.8047 66.8359 33.0703V74.75C66.8359 77.875 68.6458 79.4375 72.2656 79.4375C72.8125 79.4375 73.0859 79.5417 73.0859 79.75V80.6875C73.0859 80.8958 72.9818 81 72.7734 81H53.2031C52.9948 81 52.8906 80.8958 52.8906 80.6875V79.75C52.8906 79.5417 53.4635 79.4375 54.6094 79.4375C55.7552 79.4375 56.8099 79.0729 57.7734 78.3438C58.737 77.6146 59.2188 76.1172 59.2188 73.8516V32.1719ZM78.75 81C78.5417 81 78.4375 80.7396 78.4375 80.2188V79.75C78.4375 79.5417 78.5417 79.4375 78.75 79.4375C78.9062 79.4375 79.1536 79.4115 79.4922 79.3594C79.8307 79.3073 80.1823 79.2552 80.5469 79.2031C80.9115 79.151 81.25 79.099 81.5625 79.0469C81.875 78.9688 82.0964 78.9167 82.2266 78.8906C84.8828 78.2917 86.2109 76.7812 86.2109 74.3594V33.1094C86.2109 30.8698 85.3125 29.2812 83.5156 28.3438C82.4479 27.7708 81.3021 27.4844 80.0781 27.4844H78.5938C78.3854 27.4844 78.2812 27.3802 78.2812 27.1719V26.2344C78.2812 26.026 78.4375 25.9219 78.75 25.9219L100.195 25.3359H104.141C108.75 25.6484 112.604 27.3281 115.703 30.375C118.828 33.3958 120.391 37.1328 120.391 41.5859C120.391 46.013 118.542 49.4635 114.844 51.9375C113.698 52.6927 112.461 53.3698 111.133 53.9688L122.969 73.3047C125.026 76.6901 127.786 79.0729 131.25 80.4531C131.536 80.5312 131.68 80.7135 131.68 81C131.68 81.651 131.25 81.9766 130.391 81.9766C124.531 81.9766 119.87 79.75 116.406 75.2969C115.651 74.3073 114.896 73.2005 114.141 71.9766L104.023 56.1172L94.7266 55.6875H94.4141C94.0234 55.6875 93.8281 55.8698 93.8281 56.2344V74.2422C93.8281 75.6745 94.2318 76.7422 95.0391 77.4453C95.8464 78.1484 97.2396 78.6302 99.2188 78.8906C99.7396 78.9688 100.378 79.0859 101.133 79.2422C101.888 79.3724 102.396 79.4375 102.656 79.4375C102.943 79.4375 103.086 79.5417 103.086 79.75V80.6875C103.086 80.8958 102.982 81 102.773 81H78.75ZM96.9922 27.4062C96.6797 27.4062 96.3411 27.4193 95.9766 27.4453C95.638 27.4453 95.1953 27.4583 94.6484 27.4844C94.1016 27.4844 93.8281 27.6927 93.8281 28.1094V51.7812L93.9062 52.9531C93.9844 53.5 94.2318 53.7865 94.6484 53.8125L98.6328 54.0469C105.951 54.0469 110.365 51.4427 111.875 46.2344C112.37 44.5938 112.617 42.7188 112.617 40.6094C112.617 36.4948 111.328 33.2526 108.75 30.8828C106.198 28.513 102.93 27.3281 98.9453 27.3281C98.5807 27.3281 98.2422 27.3411 97.9297 27.3672C97.6172 27.3672 97.3047 27.3802 96.9922 27.4062ZM152.969 80.6875C152.969 80.8958 152.865 81 152.656 81H132.695C132.487 81 132.383 80.8958 132.383 80.6875V79.75C132.383 79.5417 132.552 79.4375 132.891 79.4375C136.458 79.2812 138.867 77.3802 140.117 73.7344L156.055 27.6016C156.081 27.5495 156.094 27.4844 156.094 27.4062L155.664 26.1172C155.664 25.987 155.716 25.9219 155.82 25.9219H163.633C163.685 25.9479 163.75 25.974 163.828 26C163.932 26.026 164.01 26.1042 164.062 26.2344L180.586 72.6016C180.951 73.3047 181.237 73.9427 181.445 74.5156C181.68 75.0885 181.94 75.6094 182.227 76.0781C182.852 77.1458 183.88 77.9661 185.312 78.5391C186.51 79.138 187.604 79.4375 188.594 79.4375C188.802 79.4375 188.906 79.5547 188.906 79.7891V80.6875C188.906 80.8958 188.802 81 188.594 81H164.688C164.479 81 164.375 80.8958 164.375 80.6875V79.75C164.375 79.5417 164.857 79.4115 165.82 79.3594C166.784 79.3073 167.578 79.2552 168.203 79.2031C171.823 78.8125 173.633 77.5885 173.633 75.5312C173.633 75.375 173.607 75.1927 173.555 74.9844L167.656 58.3438C167.63 58.2917 167.578 58.1745 167.5 57.9922C167.188 57.1068 166.641 56.6641 165.859 56.6641H151.992C151.211 56.6641 150.599 57.0938 150.156 57.9531C150.078 58.1354 150.039 58.2396 150.039 58.2656L144.18 75.4141V75.7656C144.18 76.4427 144.531 77.0547 145.234 77.6016C146.823 78.8255 148.958 79.4375 151.641 79.4375H152.656C152.865 79.4375 152.969 79.5417 152.969 79.75V80.6875ZM164.531 52.3281C165 52.3281 165.234 52.1328 165.234 51.7422C165.234 51.5339 165.182 51.2995 165.078 51.0391L159.258 35.0234C158.997 34.3203 158.802 33.9688 158.672 33.9688C158.542 33.9688 158.333 34.3333 158.047 35.0625L152.578 51.0391C152.474 51.2995 152.422 51.5859 152.422 51.8984C152.422 52.1849 152.617 52.3281 153.008 52.3281H164.531Z" fill="#6D1717"/>
<path d="M2.27344 79.6875V78.5938C2.27344 78.3854 2.3776 78.2812 2.58594 78.2812H3.44531C4.53906 78.2031 5.65885 78.1641 6.80469 78.1641C7.95052 78.138 8.99219 77.9948 9.92969 77.7344C12.0651 77.1094 13.1328 75.5469 13.1328 73.0469V31.875C13.1328 29.2969 11.6094 27.6562 8.5625 26.9531C7.70312 26.7708 6.83073 26.6146 5.94531 26.4844H5.125C4.91667 26.4844 4.8125 26.3802 4.8125 26.1719V25.2344C4.8125 25.026 4.91667 24.9219 5.125 24.9219H42.2734C42.7422 24.9219 43.0807 25.013 43.2891 25.1953C43.4974 25.3516 43.6276 25.7161 43.6797 26.2891L44.3828 37.6172C44.3828 37.8776 44.1875 38.0078 43.7969 38.0078C43.4062 38.0078 43.1198 37.8906 42.9375 37.6562C42.7812 37.3958 42.5729 36.4453 42.3125 34.8047C42.0781 33.1641 41.6354 31.7969 40.9844 30.7031C40.3333 29.6094 39.1875 28.9193 37.5469 28.6328H21.2578C20.9193 28.6328 20.75 28.8021 20.75 29.1406V49.3359C20.75 49.5964 20.8802 49.7266 21.1406 49.7266H34.6562C38.1458 49.7266 39.8906 47.6953 39.8906 43.6328C39.8906 43.4245 39.9948 43.3203 40.2031 43.3203H41.1406C41.349 43.3203 41.4531 43.4245 41.4531 43.6328V60.3516C41.4531 60.5599 41.349 60.6641 41.1406 60.6641H40.2031C39.9948 60.6641 39.8906 60.5599 39.8906 60.3516C39.8906 56.4974 38.7708 54.2708 36.5312 53.6719C35.9062 53.5156 35.2422 53.4375 34.5391 53.4375H21.1406C20.8802 53.4375 20.75 53.5677 20.75 53.8281V72.8516C20.75 74.8047 21.6484 75.9115 23.4453 76.1719C23.9661 76.25 24.513 76.2891 25.0859 76.2891H38.0938C40.776 76.2891 42.8594 75.1042 44.3438 72.7344C45.4115 71.0417 46.0625 69.1016 46.2969 66.9141C46.375 66.1849 46.7656 65.8203 47.4688 65.8203C47.7812 65.8203 47.9375 65.9896 47.9375 66.3281L46.6484 79.4531C46.4922 79.8177 46.3099 80 46.1016 80H2.58594C2.3776 80 2.27344 79.8958 2.27344 79.6875ZM61.2188 31.1719C61.2188 28.0469 59.4219 26.4844 55.8281 26.4844C55.2552 26.4844 54.9688 26.3802 54.9688 26.1719V25.2344C54.9688 25.026 55.0729 24.9219 55.2812 24.9219H74.8516C75.0599 24.9219 75.1641 25.026 75.1641 25.2344V26.1719C75.1641 26.3802 74.5911 26.4844 73.4453 26.4844C72.2995 26.4844 71.2448 26.849 70.2812 27.5781C69.3177 28.3073 68.8359 29.8047 68.8359 32.0703V73.75C68.8359 76.875 70.6458 78.4375 74.2656 78.4375C74.8125 78.4375 75.0859 78.5417 75.0859 78.75V79.6875C75.0859 79.8958 74.9818 80 74.7734 80H55.2031C54.9948 80 54.8906 79.8958 54.8906 79.6875V78.75C54.8906 78.5417 55.4635 78.4375 56.6094 78.4375C57.7552 78.4375 58.8099 78.0729 59.7734 77.3438C60.737 76.6146 61.2188 75.1172 61.2188 72.8516V31.1719ZM80.75 80C80.5417 80 80.4375 79.7396 80.4375 79.2188V78.75C80.4375 78.5417 80.5417 78.4375 80.75 78.4375C80.9062 78.4375 81.1536 78.4115 81.4922 78.3594C81.8307 78.3073 82.1823 78.2552 82.5469 78.2031C82.9115 78.151 83.25 78.099 83.5625 78.0469C83.875 77.9688 84.0964 77.9167 84.2266 77.8906C86.8828 77.2917 88.2109 75.7812 88.2109 73.3594V32.1094C88.2109 29.8698 87.3125 28.2812 85.5156 27.3438C84.4479 26.7708 83.3021 26.4844 82.0781 26.4844H80.5938C80.3854 26.4844 80.2812 26.3802 80.2812 26.1719V25.2344C80.2812 25.026 80.4375 24.9219 80.75 24.9219L102.195 24.3359H106.141C110.75 24.6484 114.604 26.3281 117.703 29.375C120.828 32.3958 122.391 36.1328 122.391 40.5859C122.391 45.013 120.542 48.4635 116.844 50.9375C115.698 51.6927 114.461 52.3698 113.133 52.9688L124.969 72.3047C127.026 75.6901 129.786 78.0729 133.25 79.4531C133.536 79.5312 133.68 79.7135 133.68 80C133.68 80.651 133.25 80.9766 132.391 80.9766C126.531 80.9766 121.87 78.75 118.406 74.2969C117.651 73.3073 116.896 72.2005 116.141 70.9766L106.023 55.1172L96.7266 54.6875H96.4141C96.0234 54.6875 95.8281 54.8698 95.8281 55.2344V73.2422C95.8281 74.6745 96.2318 75.7422 97.0391 76.4453C97.8464 77.1484 99.2396 77.6302 101.219 77.8906C101.74 77.9688 102.378 78.0859 103.133 78.2422C103.888 78.3724 104.396 78.4375 104.656 78.4375C104.943 78.4375 105.086 78.5417 105.086 78.75V79.6875C105.086 79.8958 104.982 80 104.773 80H80.75ZM98.9922 26.4062C98.6797 26.4062 98.3411 26.4193 97.9766 26.4453C97.638 26.4453 97.1953 26.4583 96.6484 26.4844C96.1016 26.4844 95.8281 26.6927 95.8281 27.1094V50.7812L95.9062 51.9531C95.9844 52.5 96.2318 52.7865 96.6484 52.8125L100.633 53.0469C107.951 53.0469 112.365 50.4427 113.875 45.2344C114.37 43.5938 114.617 41.7188 114.617 39.6094C114.617 35.4948 113.328 32.2526 110.75 29.8828C108.198 27.513 104.93 26.3281 100.945 26.3281C100.581 26.3281 100.242 26.3411 99.9297 26.3672C99.6172 26.3672 99.3047 26.3802 98.9922 26.4062ZM154.969 79.6875C154.969 79.8958 154.865 80 154.656 80H134.695C134.487 80 134.383 79.8958 134.383 79.6875V78.75C134.383 78.5417 134.552 78.4375 134.891 78.4375C138.458 78.2812 140.867 76.3802 142.117 72.7344L158.055 26.6016C158.081 26.5495 158.094 26.4844 158.094 26.4062L157.664 25.1172C157.664 24.987 157.716 24.9219 157.82 24.9219H165.633C165.685 24.9479 165.75 24.974 165.828 25C165.932 25.026 166.01 25.1042 166.062 25.2344L182.586 71.6016C182.951 72.3047 183.237 72.9427 183.445 73.5156C183.68 74.0885 183.94 74.6094 184.227 75.0781C184.852 76.1458 185.88 76.9661 187.312 77.5391C188.51 78.138 189.604 78.4375 190.594 78.4375C190.802 78.4375 190.906 78.5547 190.906 78.7891V79.6875C190.906 79.8958 190.802 80 190.594 80H166.688C166.479 80 166.375 79.8958 166.375 79.6875V78.75C166.375 78.5417 166.857 78.4115 167.82 78.3594C168.784 78.3073 169.578 78.2552 170.203 78.2031C173.823 77.8125 175.633 76.5885 175.633 74.5312C175.633 74.375 175.607 74.1927 175.555 73.9844L169.656 57.3438C169.63 57.2917 169.578 57.1745 169.5 56.9922C169.188 56.1068 168.641 55.6641 167.859 55.6641H153.992C153.211 55.6641 152.599 56.0938 152.156 56.9531C152.078 57.1354 152.039 57.2396 152.039 57.2656L146.18 74.4141V74.7656C146.18 75.4427 146.531 76.0547 147.234 76.6016C148.823 77.8255 150.958 78.4375 153.641 78.4375H154.656C154.865 78.4375 154.969 78.5417 154.969 78.75V79.6875ZM166.531 51.3281C167 51.3281 167.234 51.1328 167.234 50.7422C167.234 50.5339 167.182 50.2995 167.078 50.0391L161.258 34.0234C160.997 33.3203 160.802 32.9688 160.672 32.9688C160.542 32.9688 160.333 33.3333 160.047 34.0625L154.578 50.0391C154.474 50.2995 154.422 50.5859 154.422 50.8984C154.422 51.1849 154.617 51.3281 155.008 51.3281H166.531Z" fill="#B42D2D"/>
<path d="M4.27344 78.6875V77.5938C4.27344 77.3854 4.3776 77.2812 4.58594 77.2812H5.44531C6.53906 77.2031 7.65885 77.1641 8.80469 77.1641C9.95052 77.138 10.9922 76.9948 11.9297 76.7344C14.0651 76.1094 15.1328 74.5469 15.1328 72.0469V30.875C15.1328 28.2969 13.6094 26.6562 10.5625 25.9531C9.70312 25.7708 8.83073 25.6146 7.94531 25.4844H7.125C6.91667 25.4844 6.8125 25.3802 6.8125 25.1719V24.2344C6.8125 24.026 6.91667 23.9219 7.125 23.9219H44.2734C44.7422 23.9219 45.0807 24.013 45.2891 24.1953C45.4974 24.3516 45.6276 24.7161 45.6797 25.2891L46.3828 36.6172C46.3828 36.8776 46.1875 37.0078 45.7969 37.0078C45.4062 37.0078 45.1198 36.8906 44.9375 36.6562C44.7812 36.3958 44.5729 35.4453 44.3125 33.8047C44.0781 32.1641 43.6354 30.7969 42.9844 29.7031C42.3333 28.6094 41.1875 27.9193 39.5469 27.6328H23.2578C22.9193 27.6328 22.75 27.8021 22.75 28.1406V48.3359C22.75 48.5964 22.8802 48.7266 23.1406 48.7266H36.6562C40.1458 48.7266 41.8906 46.6953 41.8906 42.6328C41.8906 42.4245 41.9948 42.3203 42.2031 42.3203H43.1406C43.349 42.3203 43.4531 42.4245 43.4531 42.6328V59.3516C43.4531 59.5599 43.349 59.6641 43.1406 59.6641H42.2031C41.9948 59.6641 41.8906 59.5599 41.8906 59.3516C41.8906 55.4974 40.7708 53.2708 38.5312 52.6719C37.9062 52.5156 37.2422 52.4375 36.5391 52.4375H23.1406C22.8802 52.4375 22.75 52.5677 22.75 52.8281V71.8516C22.75 73.8047 23.6484 74.9115 25.4453 75.1719C25.9661 75.25 26.513 75.2891 27.0859 75.2891H40.0938C42.776 75.2891 44.8594 74.1042 46.3438 71.7344C47.4115 70.0417 48.0625 68.1016 48.2969 65.9141C48.375 65.1849 48.7656 64.8203 49.4688 64.8203C49.7812 64.8203 49.9375 64.9896 49.9375 65.3281L48.6484 78.4531C48.4922 78.8177 48.3099 79 48.1016 79H4.58594C4.3776 79 4.27344 78.8958 4.27344 78.6875ZM63.2188 30.1719C63.2188 27.0469 61.4219 25.4844 57.8281 25.4844C57.2552 25.4844 56.9688 25.3802 56.9688 25.1719V24.2344C56.9688 24.026 57.0729 23.9219 57.2812 23.9219H76.8516C77.0599 23.9219 77.1641 24.026 77.1641 24.2344V25.1719C77.1641 25.3802 76.5911 25.4844 75.4453 25.4844C74.2995 25.4844 73.2448 25.849 72.2812 26.5781C71.3177 27.3073 70.8359 28.8047 70.8359 31.0703V72.75C70.8359 75.875 72.6458 77.4375 76.2656 77.4375C76.8125 77.4375 77.0859 77.5417 77.0859 77.75V78.6875C77.0859 78.8958 76.9818 79 76.7734 79H57.2031C56.9948 79 56.8906 78.8958 56.8906 78.6875V77.75C56.8906 77.5417 57.4635 77.4375 58.6094 77.4375C59.7552 77.4375 60.8099 77.0729 61.7734 76.3438C62.737 75.6146 63.2188 74.1172 63.2188 71.8516V30.1719ZM82.75 79C82.5417 79 82.4375 78.7396 82.4375 78.2188V77.75C82.4375 77.5417 82.5417 77.4375 82.75 77.4375C82.9062 77.4375 83.1536 77.4115 83.4922 77.3594C83.8307 77.3073 84.1823 77.2552 84.5469 77.2031C84.9115 77.151 85.25 77.099 85.5625 77.0469C85.875 76.9688 86.0964 76.9167 86.2266 76.8906C88.8828 76.2917 90.2109 74.7812 90.2109 72.3594V31.1094C90.2109 28.8698 89.3125 27.2812 87.5156 26.3438C86.4479 25.7708 85.3021 25.4844 84.0781 25.4844H82.5938C82.3854 25.4844 82.2812 25.3802 82.2812 25.1719V24.2344C82.2812 24.026 82.4375 23.9219 82.75 23.9219L104.195 23.3359H108.141C112.75 23.6484 116.604 25.3281 119.703 28.375C122.828 31.3958 124.391 35.1328 124.391 39.5859C124.391 44.013 122.542 47.4635 118.844 49.9375C117.698 50.6927 116.461 51.3698 115.133 51.9688L126.969 71.3047C129.026 74.6901 131.786 77.0729 135.25 78.4531C135.536 78.5312 135.68 78.7135 135.68 79C135.68 79.651 135.25 79.9766 134.391 79.9766C128.531 79.9766 123.87 77.75 120.406 73.2969C119.651 72.3073 118.896 71.2005 118.141 69.9766L108.023 54.1172L98.7266 53.6875H98.4141C98.0234 53.6875 97.8281 53.8698 97.8281 54.2344V72.2422C97.8281 73.6745 98.2318 74.7422 99.0391 75.4453C99.8464 76.1484 101.24 76.6302 103.219 76.8906C103.74 76.9688 104.378 77.0859 105.133 77.2422C105.888 77.3724 106.396 77.4375 106.656 77.4375C106.943 77.4375 107.086 77.5417 107.086 77.75V78.6875C107.086 78.8958 106.982 79 106.773 79H82.75ZM100.992 25.4062C100.68 25.4062 100.341 25.4193 99.9766 25.4453C99.638 25.4453 99.1953 25.4583 98.6484 25.4844C98.1016 25.4844 97.8281 25.6927 97.8281 26.1094V49.7812L97.9062 50.9531C97.9844 51.5 98.2318 51.7865 98.6484 51.8125L102.633 52.0469C109.951 52.0469 114.365 49.4427 115.875 44.2344C116.37 42.5938 116.617 40.7188 116.617 38.6094C116.617 34.4948 115.328 31.2526 112.75 28.8828C110.198 26.513 106.93 25.3281 102.945 25.3281C102.581 25.3281 102.242 25.3411 101.93 25.3672C101.617 25.3672 101.305 25.3802 100.992 25.4062ZM156.969 78.6875C156.969 78.8958 156.865 79 156.656 79H136.695C136.487 79 136.383 78.8958 136.383 78.6875V77.75C136.383 77.5417 136.552 77.4375 136.891 77.4375C140.458 77.2812 142.867 75.3802 144.117 71.7344L160.055 25.6016C160.081 25.5495 160.094 25.4844 160.094 25.4062L159.664 24.1172C159.664 23.987 159.716 23.9219 159.82 23.9219H167.633C167.685 23.9479 167.75 23.974 167.828 24C167.932 24.026 168.01 24.1042 168.062 24.2344L184.586 70.6016C184.951 71.3047 185.237 71.9427 185.445 72.5156C185.68 73.0885 185.94 73.6094 186.227 74.0781C186.852 75.1458 187.88 75.9661 189.312 76.5391C190.51 77.138 191.604 77.4375 192.594 77.4375C192.802 77.4375 192.906 77.5547 192.906 77.7891V78.6875C192.906 78.8958 192.802 79 192.594 79H168.688C168.479 79 168.375 78.8958 168.375 78.6875V77.75C168.375 77.5417 168.857 77.4115 169.82 77.3594C170.784 77.3073 171.578 77.2552 172.203 77.2031C175.823 76.8125 177.633 75.5885 177.633 73.5312C177.633 73.375 177.607 73.1927 177.555 72.9844L171.656 56.3438C171.63 56.2917 171.578 56.1745 171.5 55.9922C171.188 55.1068 170.641 54.6641 169.859 54.6641H155.992C155.211 54.6641 154.599 55.0938 154.156 55.9531C154.078 56.1354 154.039 56.2396 154.039 56.2656L148.18 73.4141V73.7656C148.18 74.4427 148.531 75.0547 149.234 75.6016C150.823 76.8255 152.958 77.4375 155.641 77.4375H156.656C156.865 77.4375 156.969 77.5417 156.969 77.75V78.6875ZM168.531 50.3281C169 50.3281 169.234 50.1328 169.234 49.7422C169.234 49.5339 169.182 49.2995 169.078 49.0391L163.258 33.0234C162.997 32.3203 162.802 31.9688 162.672 31.9688C162.542 31.9688 162.333 32.3333 162.047 33.0625L156.578 49.0391C156.474 49.2995 156.422 49.5859 156.422 49.8984C156.422 50.1849 156.617 50.3281 157.008 50.3281H168.531Z" fill="white"/>
</svg>
