<svg width="165" height="167" viewBox="0 0 165 167" fill="none" xmlns="http://www.w3.org/2000/svg">
<g clip-path="url(#clip0_173_242)">
<path d="M41 4.55023C20.9101 41.2574 13.6177 64.1777 7.5 109.05L81.5 101.05C70.1764 60.7218 61.5005 39.4792 41 4.55023Z" fill="black" stroke="black" stroke-width="0.8"/>
<path d="M130 4.55023C150.09 41.2574 157.382 64.1777 163.5 109.05L89.5 101.05C100.824 60.7218 109.499 39.4792 130 4.55023Z" fill="black" stroke="black" stroke-width="0.8"/>
<path d="M164 106.576C164 137.78 128.467 164.05 85.2508 164.05C42.0341 164.05 7 138.754 7 107.55C7 76.3461 42.0341 51.0502 85.2508 51.0502C128.467 51.0502 164 75.372 164 106.576Z" fill="black" stroke="black" stroke-width="0.8" stroke-linejoin="bevel"/>
<path d="M60.4315 105.523C53.7847 125.429 39.4571 138.582 28.4298 134.9C17.4026 131.218 7.35324 109.457 14 89.5502C20.6468 69.6438 46.4729 61.3682 57.5001 65.0502C68.5273 68.7322 67.0782 85.6161 60.4315 105.523Z" fill="black"/>
<path d="M99.0718 116.147L99.5718 116.647C99.5718 116.647 116.072 125.147 134.072 117.647C152.072 110.147 153.072 90.6466 153.072 90.6466C153.072 90.6466 145.572 77.6466 121.072 88.1466C96.5716 98.6465 99.0718 116.147 99.0718 116.147Z" fill="black" stroke="black" stroke-width="0.8"/>
<path d="M126.061 89.7501C126.564 90.4008 127.357 91.7207 128.073 93.6173C128.933 95.8955 129.672 98.9726 129.672 102.647C129.672 109.632 127.45 113.556 125.976 115.6C124.979 114.864 124.13 113.525 123.517 111.514C122.845 109.309 122.472 106.352 122.472 102.647C122.472 95.7586 124.63 91.4386 126.061 89.7501Z" fill="black" stroke="black" stroke-width="0.8"/>
<path d="M70.9999 116.147L70.4999 116.647C70.4999 116.647 53.9998 125.147 35.9998 117.647C17.9998 110.147 16.9999 90.6466 16.9999 90.6466C16.9999 90.6466 24.4998 77.6466 48.9999 88.1466C73.5001 98.6465 70.9999 116.147 70.9999 116.147Z" fill="black" stroke="black" stroke-width="0.8"/>
<path d="M43.5107 89.7143C43.0699 90.3897 42.4044 91.68 41.8018 93.5043C41.0481 95.786 40.4004 98.8691 40.4004 102.55C40.4004 109.48 42.3101 113.403 43.5996 115.463C44.4364 114.722 45.158 113.401 45.6836 111.43C46.2729 109.22 46.5996 106.258 46.5996 102.55C46.5996 95.7541 44.7624 91.4557 43.5107 89.7143Z" fill="black" stroke="black" stroke-width="0.8"/>
<mask id="mask0_173_242" style="mask-type:luminance" maskUnits="userSpaceOnUse" x="7" y="102" width="157" height="63">
<path d="M164 102.05H7V164.524H164V102.05Z" fill="white"/>
</mask>
<g mask="url(#mask0_173_242)">
<path d="M164 106.914C164 106.914 164 164.524 85.2508 164.524C7 164.524 7 107.89 7 107.89C7 107.89 42.0341 128.439 85.2508 128.439C128.468 128.439 164 106.914 164 106.914Z" fill="black" stroke="black" stroke-width="0.8" stroke-linejoin="bevel"/>
<path d="M85 128.654V164.524" stroke="black" stroke-width="2"/>
<path d="M110 125.936V162.35" stroke="black" stroke-width="2"/>
<path d="M60 125.936V162.35" stroke="black" stroke-width="2"/>
<path d="M130 121.398V155.888" stroke="black" stroke-width="2"/>
<path d="M40 121.398V155.285" stroke="black" stroke-width="2"/>
<path d="M147 115.61V143.872" stroke="black" stroke-width="2"/>
<path d="M23 115.61V142.785" stroke="black" stroke-width="2"/>
<path d="M146 143.872H147V144.415L146 144.959V143.872Z" fill="black"/>
<path d="M22 142.785H23V143.872L22.5 143.328L22 142.785Z" fill="black"/>
<path d="M148 115.61H147V115.066L148 114.523V115.61Z" fill="black"/>
<path d="M41 155.828H40V155.285L41 154.741V155.828Z" fill="black"/>
<path d="M24 142.785H23V143.872L24 144.959V142.785Z" fill="black"/>
<path d="M23 115.61H22V115.066H23V115.61Z" fill="black"/>
</g>
<path d="M85.866 122.55C85.4811 123.217 84.5189 123.217 84.134 122.55L80.6699 116.55C80.285 115.884 80.7661 115.05 81.5359 115.05H88.4641C89.2339 115.05 89.715 115.884 89.3301 116.55L85.866 122.55Z" fill="black"/>
<path d="M129.75 4.55023C149.84 41.2574 157.132 64.1777 163.25 109.05L89.25 101.05C100.574 60.7218 109.249 39.4792 129.75 4.55023Z" fill="black" stroke="black" stroke-width="0.8"/>
<path d="M40.75 4.55023C20.6601 41.2574 13.3677 64.1777 7.25 109.05L81.25 101.05C69.9264 60.7218 61.2505 39.4792 40.75 4.55023Z" fill="black" stroke="black" stroke-width="0.8"/>
<path d="M6.75 106.576C6.75 137.78 42.2825 164.05 85.4992 164.05C128.716 164.05 163.75 138.754 163.75 107.55C163.75 76.3461 128.716 51.0502 85.4992 51.0502C42.2825 51.0502 6.75 75.372 6.75 106.576Z" fill="black" stroke="black" stroke-width="0.8" stroke-linejoin="bevel"/>
<path d="M71.6782 116.147L71.1782 116.647C71.1782 116.647 54.678 125.147 36.678 117.647C18.678 110.147 17.6782 90.6466 17.6782 90.6466C17.6782 90.6466 25.178 77.6466 49.6782 88.1466C74.1784 98.6465 71.6782 116.147 71.6782 116.147Z" fill="black" stroke="black" stroke-width="0.8"/>
<path d="M44.6887 89.7501C44.186 90.4008 43.3929 91.7207 42.677 93.6173C41.8171 95.8955 41.0784 98.9726 41.0784 102.647C41.0784 109.632 43.3001 113.556 44.7737 115.6C45.7706 114.864 46.6196 113.525 47.2327 111.514C47.9046 109.309 48.2776 106.352 48.2776 102.647C48.2776 95.7586 46.1202 91.4386 44.6887 89.7501Z" fill="black" stroke="black" stroke-width="0.8"/>
<path d="M99.7501 116.147L100.25 116.647C100.25 116.647 116.75 125.147 134.75 117.647C152.75 110.147 153.75 90.6466 153.75 90.6466C153.75 90.6466 146.25 77.6466 121.75 88.1466C97.2499 98.6465 99.7501 116.147 99.7501 116.147Z" fill="black" stroke="black" stroke-width="0.8"/>
<path d="M127.239 89.7143C127.68 90.3897 128.346 91.68 128.948 93.5043C129.702 95.786 130.35 98.8691 130.35 102.55C130.35 109.48 128.44 113.403 127.15 115.463C126.314 114.722 125.592 113.401 125.066 111.43C124.477 109.22 124.15 106.258 124.15 102.55C124.15 95.7541 125.988 91.4557 127.239 89.7143Z" fill="black" stroke="black" stroke-width="0.8"/>
<mask id="mask1_173_242" style="mask-type:luminance" maskUnits="userSpaceOnUse" x="6" y="102" width="158" height="63">
<path d="M6.75 102.05H163.75V164.524H6.75V102.05Z" fill="white"/>
</mask>
<g mask="url(#mask1_173_242)">
<path d="M6.75 106.914C6.75 106.914 6.75 164.524 85.4992 164.524C163.75 164.524 163.75 107.89 163.75 107.89C163.75 107.89 128.716 128.439 85.4992 128.439C42.282 128.439 6.75 106.914 6.75 106.914Z" fill="black" stroke="black" stroke-width="0.8" stroke-linejoin="bevel"/>
<path d="M85.75 128.654V164.524" stroke="black" stroke-width="2"/>
<path d="M60.75 125.936V162.35" stroke="black" stroke-width="2"/>
<path d="M110.75 125.936V162.35" stroke="black" stroke-width="2"/>
<path d="M40.75 121.398V155.888" stroke="black" stroke-width="2"/>
<path d="M130.75 121.398V155.285" stroke="black" stroke-width="2"/>
<path d="M23.75 115.61V143.872" stroke="black" stroke-width="2"/>
<path d="M147.75 115.61V142.785" stroke="black" stroke-width="2"/>
<path d="M24.75 143.872H23.75V144.415L24.75 144.959V143.872Z" fill="black"/>
<path d="M148.75 142.785H147.75V143.872L148.25 143.328L148.75 142.785Z" fill="black"/>
<path d="M22.75 115.61H23.75V115.066L22.75 114.523V115.61Z" fill="black"/>
<path d="M129.75 155.828H130.75V155.285L129.75 154.741V155.828Z" fill="black"/>
<path d="M146.75 142.785H147.75V143.872L146.75 144.959V142.785Z" fill="black"/>
<path d="M147.75 115.61H148.75V115.066H147.75V115.61Z" fill="black"/>
</g>
<path d="M84.884 122.55C85.2689 123.217 86.2311 123.217 86.616 122.55L90.0801 116.55C90.465 115.884 89.9839 115.05 89.2141 115.05H82.2859C81.5161 115.05 81.035 115.884 81.4199 116.55L84.884 122.55Z" fill="black"/>
<g clip-path="url(#clip1_173_242)">
<path d="M123.75 1.5C143.84 38.2071 151.132 61.1275 157.25 106L83.25 98C94.5736 57.6716 103.249 36.429 123.75 1.5Z" fill="#A12727" stroke="#531112" stroke-width="0.8"/>
<path d="M0.75 103.526C0.75 134.73 36.2825 161 79.4992 161C122.716 161 157.75 135.704 157.75 104.5C157.75 73.2959 122.716 48 79.4992 48C36.2825 48 0.75 72.3218 0.75 103.526Z" fill="#B42D2D" stroke="#531112" stroke-width="0.8" stroke-linejoin="bevel"/>
<path d="M110.026 100.018C116.764 120.197 130.105 133.925 139.824 130.679C149.543 127.434 161.331 113.952 154.593 93.7737C147.855 73.5948 120.759 56.4008 111.04 59.6459C101.321 62.8911 103.289 79.8394 110.026 100.018Z" fill="#531112" fill-opacity="0.2"/>
<path d="M108.75 50C128.75 52 139.426 69.5753 145.25 67.5221C151.074 65.4689 144.842 55.4419 139.75 41C134.659 26.5581 129.75 16 124.25 9.49998C118.426 11.5532 108.75 34 108.75 50Z" fill="#531112" fill-opacity="0.2"/>
<path d="M93.7501 113.096L94.2501 113.596C94.2501 113.596 110.75 122.096 128.75 114.596C146.75 107.096 147.75 87.5963 147.75 87.5963C147.75 87.5963 140.25 74.5964 115.75 85.0963C91.2499 95.5963 93.7501 113.096 93.7501 113.096Z" fill="white" stroke="#531112" stroke-width="0.8"/>
<path d="M121.239 86.6641C121.68 87.3395 122.346 88.6297 122.948 90.4541C123.702 92.7358 124.35 95.8189 124.35 99.5C124.35 106.43 122.44 110.352 121.15 112.413C120.314 111.672 119.592 110.35 119.066 108.38C118.477 106.17 118.15 103.208 118.15 99.5C118.15 92.7039 119.988 88.4055 121.239 86.6641Z" fill="#531112" stroke="#531112" stroke-width="0.8"/>
<mask id="mask2_173_242" style="mask-type:luminance" maskUnits="userSpaceOnUse" x="0" y="99" width="158" height="63">
<path d="M0.75 99H157.75V161.474H0.75V99Z" fill="white"/>
</mask>
<g mask="url(#mask2_173_242)">
<path d="M0.75 103.863C0.75 103.863 0.75 161.474 79.4992 161.474C157.75 161.474 157.75 104.84 157.75 104.84C157.75 104.84 122.716 125.389 79.4992 125.389C36.282 125.389 0.75 103.863 0.75 103.863Z" fill="white" stroke="#531112" stroke-width="0.8" stroke-linejoin="bevel"/>
<path d="M79.75 125.603V161.474" stroke="#531112" stroke-width="2"/>
<path d="M108.5 122.5L116 156.5" stroke="#531112" stroke-width="2"/>
<path d="M133.75 115.348L144.5 137.5" stroke="#531112" stroke-width="2"/>
<path d="M144.363 138.137L143.863 137.637L143.5 137.5C143.603 137.947 143.674 138.196 143.863 138.645L144.363 138.137Z" fill="#531112"/>
<path d="M141.75 112.559H142.75V112.016H141.75V112.559Z" fill="#531112"/>
</g>
<path d="M78.884 119.5C79.2689 120.167 80.2311 120.167 80.616 119.5L84.0801 113.5C84.465 112.833 83.9839 112 83.2141 112H76.2859C75.5161 112 75.035 112.833 75.4199 113.5L78.884 119.5Z" fill="#531112"/>
</g>
<g clip-path="url(#clip2_173_242)">
<path d="M35.75 1.5C15.6601 38.2071 8.36772 61.1275 2.25 106L76.25 98C64.9264 57.6716 56.2505 36.429 35.75 1.5Z" fill="#A12727" stroke="#531112" stroke-width="0.8"/>
<path d="M158.75 103.526C158.75 134.73 123.217 161 80.0008 161C36.7841 161 1.75 135.704 1.75 104.5C1.75 73.2959 36.7841 48 80.0008 48C123.217 48 158.75 72.3218 158.75 103.526Z" fill="#B42D2D" stroke="#531112" stroke-width="0.8" stroke-linejoin="bevel"/>
<path d="M41 65.5C45.6557 71.2408 37.7477 71.027 31.1342 76.3904C24.5207 81.7538 21.7597 90.682 17.1039 84.9412C12.4482 79.2004 17.0695 74.0735 23.683 68.7101C30.2965 63.3467 36.3443 59.7592 41 65.5Z" fill="white" fill-opacity="0.26"/>
<path d="M50.75 50C30.75 52 20.0738 69.5753 14.2499 67.5221C8.42605 65.4689 14.6584 55.4419 19.7499 41C24.8413 26.5581 29.7499 16 35.2501 9.49998C41.0739 11.5532 50.75 34 50.75 50Z" fill="#531112" fill-opacity="0.2"/>
<path d="M65.7499 113.096L65.2499 113.596C65.2499 113.596 48.7498 122.096 30.7498 114.596C12.7498 107.096 11.7499 87.5963 11.7499 87.5963C11.7499 87.5963 19.2498 74.5964 43.7499 85.0963C68.2501 95.5963 65.7499 113.096 65.7499 113.096Z" fill="white" stroke="#531112" stroke-width="0.8"/>
<path d="M38.2607 86.6641C37.8199 87.3395 37.1544 88.6297 36.5518 90.4541C35.7981 92.7358 35.1504 95.8189 35.1504 99.5C35.1504 106.43 37.0601 110.352 38.3496 112.413C39.1864 111.672 39.908 110.35 40.4336 108.38C41.0229 106.17 41.3496 103.208 41.3496 99.5C41.3496 92.7039 39.5124 88.4055 38.2607 86.6641Z" fill="#531112" stroke="#531112" stroke-width="0.8"/>
<mask id="mask3_173_242" style="mask-type:luminance" maskUnits="userSpaceOnUse" x="1" y="99" width="158" height="63">
<path d="M158.75 99H1.75V161.474H158.75V99Z" fill="white"/>
</mask>
<g mask="url(#mask3_173_242)">
<path d="M158.75 103.863C158.75 103.863 158.75 161.474 80.0008 161.474C1.75 161.474 1.75 104.84 1.75 104.84C1.75 104.84 36.7841 125.389 80.0008 125.389C123.218 125.389 158.75 103.863 158.75 103.863Z" fill="white" stroke="#531112" stroke-width="0.8" stroke-linejoin="bevel"/>
<path d="M79.75 125.603V161.474" stroke="#531112" stroke-width="2"/>
<path d="M51 122.5L43.5 156.5" stroke="#531112" stroke-width="2"/>
<path d="M25.7501 115.348L15 137.5" stroke="#531112" stroke-width="2"/>
<path d="M15.1367 138.137L15.6367 137.637L16 137.5C15.8971 137.947 15.8258 138.196 15.6367 138.645L15.1367 138.137Z" fill="#531112"/>
<path d="M17.75 112.559H16.75V112.016H17.75V112.559Z" fill="#531112"/>
</g>
<path d="M80.616 119.5C80.2311 120.167 79.2689 120.167 78.884 119.5L75.4199 113.5C75.035 112.833 75.5161 112 76.2859 112H83.2141C83.9839 112 84.465 112.833 84.0801 113.5L80.616 119.5Z" fill="#531112"/>
</g>
</g>
<defs>
<clipPath id="clip0_173_242">
<rect width="164.25" height="167" fill="white" transform="translate(0.75)"/>
</clipPath>
<clipPath id="clip1_173_242">
<rect width="80" height="163.95" fill="white" transform="matrix(-1 0 0 1 158.75 0)"/>
</clipPath>
<clipPath id="clip2_173_242">
<rect width="80" height="163.95" fill="white" transform="translate(0.75)"/>
</clipPath>
</defs>
</svg>
