<svg width="80" height="110" viewBox="0 0 80 110" fill="none" xmlns="http://www.w3.org/2000/svg">
<path d="M19.5703 79.4375C19.7266 79.4375 19.8047 79.5417 19.8047 79.75V80.6875C19.8047 80.8958 19.7266 81 19.5703 81H1.32812C1.11979 81 1.01562 80.8958 1.01562 80.6875V79.75C1.01562 79.5417 1.11979 79.4375 1.32812 79.4375C5.59896 79.4375 7.91667 77.6016 8.28125 73.9297C8.38542 72.862 8.48958 71.0911 8.59375 68.6172C8.72396 66.1172 9.07552 60.7656 9.64844 52.5625C10.2214 44.3333 10.5078 37.6797 10.5078 32.6016V31.1562C10.5078 30.1146 9.90885 29.2422 8.71094 28.5391C7.53906 27.8359 6.67969 27.4844 6.13281 27.4844C5.58594 27.4844 5.3125 27.3802 5.3125 27.1719V26.2344C5.3125 26.026 5.41667 25.9219 5.625 25.9219H16.9141C17.4089 26 17.8125 26.2865 18.125 26.7812L36.4453 67.6016C36.5755 67.7839 36.6797 67.9401 36.7578 68.0703C36.8359 68.2005 37.0312 68.2656 37.3438 68.2656C37.6562 68.2396 37.8906 68.0052 38.0469 67.5625L56.1719 27.4844C56.7188 26.4427 57.2135 25.9219 57.6562 25.9219H69.0234C69.2318 25.9219 69.3359 26.026 69.3359 26.2344V27.1719C69.3359 27.3802 69.2708 27.4844 69.1406 27.4844C68.3594 27.4844 67.3958 27.7448 66.25 28.2656C64.5052 29.0469 63.6328 30.2057 63.6328 31.7422L65.9766 74.9062C66.0286 76.2604 66.7318 77.3542 68.0859 78.1875C69.4401 79.0208 71.2109 79.4375 73.3984 79.4375C73.6068 79.4375 73.7109 79.5417 73.7109 79.75V80.6875C73.7109 80.8958 73.6068 81 73.3984 81H51.2109C51.0026 81 50.8984 80.8958 50.8984 80.6875V79.75C50.8984 79.5417 51.0026 79.4375 51.2109 79.4375C55.8724 79.4375 58.2031 78.3047 58.2031 76.0391L56.1328 38.7344C56.1068 38.474 56.0286 38.3438 55.8984 38.3438C55.7943 38.3438 55.7031 38.4609 55.625 38.6953L36.2109 80.7266C36.1068 80.9089 35.8073 81 35.3125 81C34.8177 81 34.5312 80.8958 34.4531 80.6875L15.3125 38.5781C15.1562 38.2135 15 38.0312 14.8438 38.0312C14.7135 38.0312 14.6484 38.3177 14.6484 38.8906C14.6484 40.0885 14.3359 45.7396 13.7109 55.8438C13.0859 65.9479 12.7734 72.25 12.7734 74.75V76.3516C13.0859 77.8359 14.5573 78.7995 17.1875 79.2422C17.9427 79.3724 18.737 79.4375 19.5703 79.4375Z" fill="#6D1717"/>
<path d="M21.5703 78.4375C21.7266 78.4375 21.8047 78.5417 21.8047 78.75V79.6875C21.8047 79.8958 21.7266 80 21.5703 80H3.32812C3.11979 80 3.01562 79.8958 3.01562 79.6875V78.75C3.01562 78.5417 3.11979 78.4375 3.32812 78.4375C7.59896 78.4375 9.91667 76.6016 10.2812 72.9297C10.3854 71.862 10.4896 70.0911 10.5938 67.6172C10.724 65.1172 11.0755 59.7656 11.6484 51.5625C12.2214 43.3333 12.5078 36.6797 12.5078 31.6016V30.1562C12.5078 29.1146 11.9089 28.2422 10.7109 27.5391C9.53906 26.8359 8.67969 26.4844 8.13281 26.4844C7.58594 26.4844 7.3125 26.3802 7.3125 26.1719V25.2344C7.3125 25.026 7.41667 24.9219 7.625 24.9219H18.9141C19.4089 25 19.8125 25.2865 20.125 25.7812L38.4453 66.6016C38.5755 66.7839 38.6797 66.9401 38.7578 67.0703C38.8359 67.2005 39.0312 67.2656 39.3438 67.2656C39.6562 67.2396 39.8906 67.0052 40.0469 66.5625L58.1719 26.4844C58.7188 25.4427 59.2135 24.9219 59.6562 24.9219H71.0234C71.2318 24.9219 71.3359 25.026 71.3359 25.2344V26.1719C71.3359 26.3802 71.2708 26.4844 71.1406 26.4844C70.3594 26.4844 69.3958 26.7448 68.25 27.2656C66.5052 28.0469 65.6328 29.2057 65.6328 30.7422L67.9766 73.9062C68.0286 75.2604 68.7318 76.3542 70.0859 77.1875C71.4401 78.0208 73.2109 78.4375 75.3984 78.4375C75.6068 78.4375 75.7109 78.5417 75.7109 78.75V79.6875C75.7109 79.8958 75.6068 80 75.3984 80H53.2109C53.0026 80 52.8984 79.8958 52.8984 79.6875V78.75C52.8984 78.5417 53.0026 78.4375 53.2109 78.4375C57.8724 78.4375 60.2031 77.3047 60.2031 75.0391L58.1328 37.7344C58.1068 37.474 58.0286 37.3438 57.8984 37.3438C57.7943 37.3438 57.7031 37.4609 57.625 37.6953L38.2109 79.7266C38.1068 79.9089 37.8073 80 37.3125 80C36.8177 80 36.5312 79.8958 36.4531 79.6875L17.3125 37.5781C17.1562 37.2135 17 37.0312 16.8438 37.0312C16.7135 37.0312 16.6484 37.3177 16.6484 37.8906C16.6484 39.0885 16.3359 44.7396 15.7109 54.8438C15.0859 64.9479 14.7734 71.25 14.7734 73.75V75.3516C15.0859 76.8359 16.5573 77.7995 19.1875 78.2422C19.9427 78.3724 20.737 78.4375 21.5703 78.4375Z" fill="#B42D2D"/>
<path d="M23.5703 77.4375C23.7266 77.4375 23.8047 77.5417 23.8047 77.75V78.6875C23.8047 78.8958 23.7266 79 23.5703 79H5.32812C5.11979 79 5.01562 78.8958 5.01562 78.6875V77.75C5.01562 77.5417 5.11979 77.4375 5.32812 77.4375C9.59896 77.4375 11.9167 75.6016 12.2812 71.9297C12.3854 70.862 12.4896 69.0911 12.5938 66.6172C12.724 64.1172 13.0755 58.7656 13.6484 50.5625C14.2214 42.3333 14.5078 35.6797 14.5078 30.6016V29.1562C14.5078 28.1146 13.9089 27.2422 12.7109 26.5391C11.5391 25.8359 10.6797 25.4844 10.1328 25.4844C9.58594 25.4844 9.3125 25.3802 9.3125 25.1719V24.2344C9.3125 24.026 9.41667 23.9219 9.625 23.9219H20.9141C21.4089 24 21.8125 24.2865 22.125 24.7812L40.4453 65.6016C40.5755 65.7839 40.6797 65.9401 40.7578 66.0703C40.8359 66.2005 41.0312 66.2656 41.3438 66.2656C41.6562 66.2396 41.8906 66.0052 42.0469 65.5625L60.1719 25.4844C60.7188 24.4427 61.2135 23.9219 61.6562 23.9219H73.0234C73.2318 23.9219 73.3359 24.026 73.3359 24.2344V25.1719C73.3359 25.3802 73.2708 25.4844 73.1406 25.4844C72.3594 25.4844 71.3958 25.7448 70.25 26.2656C68.5052 27.0469 67.6328 28.2057 67.6328 29.7422L69.9766 72.9062C70.0286 74.2604 70.7318 75.3542 72.0859 76.1875C73.4401 77.0208 75.2109 77.4375 77.3984 77.4375C77.6068 77.4375 77.7109 77.5417 77.7109 77.75V78.6875C77.7109 78.8958 77.6068 79 77.3984 79H55.2109C55.0026 79 54.8984 78.8958 54.8984 78.6875V77.75C54.8984 77.5417 55.0026 77.4375 55.2109 77.4375C59.8724 77.4375 62.2031 76.3047 62.2031 74.0391L60.1328 36.7344C60.1068 36.474 60.0286 36.3438 59.8984 36.3438C59.7943 36.3438 59.7031 36.4609 59.625 36.6953L40.2109 78.7266C40.1068 78.9089 39.8073 79 39.3125 79C38.8177 79 38.5312 78.8958 38.4531 78.6875L19.3125 36.5781C19.1562 36.2135 19 36.0312 18.8438 36.0312C18.7135 36.0312 18.6484 36.3177 18.6484 36.8906C18.6484 38.0885 18.3359 43.7396 17.7109 53.8438C17.0859 63.9479 16.7734 70.25 16.7734 72.75V74.3516C17.0859 75.8359 18.5573 76.7995 21.1875 77.2422C21.9427 77.3724 22.737 77.4375 23.5703 77.4375Z" fill="white"/>
</svg>
