<svg width="203" height="111" viewBox="0 0 203 111" fill="none" xmlns="http://www.w3.org/2000/svg">
<path d="M19.7202 79.8903C19.8764 79.8903 19.9545 79.9944 19.9545 80.2028V81.1403C19.9545 81.3486 19.8764 81.4528 19.7202 81.4528H1.47797C1.26963 81.4528 1.16547 81.3486 1.16547 81.1403V80.2028C1.16547 79.9944 1.26963 79.8903 1.47797 79.8903C5.7488 79.8903 8.06651 78.0543 8.43109 74.3824C8.53526 73.3147 8.63942 71.5439 8.74359 69.0699C8.8738 66.5699 9.22536 61.2184 9.79828 53.0153C10.3712 44.7861 10.6577 38.1324 10.6577 33.0543V31.609C10.6577 30.5673 10.0587 29.6949 8.86078 28.9918C7.6889 28.2887 6.82953 27.9371 6.28265 27.9371C5.73578 27.9371 5.46234 27.833 5.46234 27.6246V26.6871C5.46234 26.4788 5.56651 26.3746 5.77484 26.3746H17.0639C17.5587 26.4528 17.9623 26.7392 18.2748 27.234L36.5952 68.0543C36.7254 68.2366 36.8295 68.3929 36.9077 68.5231C36.9858 68.6533 37.1811 68.7184 37.4936 68.7184C37.8061 68.6923 38.0405 68.458 38.1967 68.0153L56.3217 27.9371C56.8686 26.8955 57.3634 26.3746 57.8061 26.3746H69.1733C69.3816 26.3746 69.4858 26.4788 69.4858 26.6871V27.6246C69.4858 27.833 69.4207 27.9371 69.2905 27.9371C68.5092 27.9371 67.5457 28.1976 66.3998 28.7184C64.655 29.4996 63.7827 30.6585 63.7827 32.1949L66.1264 75.359C66.1785 76.7132 66.8816 77.8069 68.2358 78.6403C69.5899 79.4736 71.3608 79.8903 73.5483 79.8903C73.7566 79.8903 73.8608 79.9944 73.8608 80.2028V81.1403C73.8608 81.3486 73.7566 81.4528 73.5483 81.4528H51.3608C51.1524 81.4528 51.0483 81.3486 51.0483 81.1403V80.2028C51.0483 79.9944 51.1524 79.8903 51.3608 79.8903C56.0222 79.8903 58.353 78.7574 58.353 76.4918L56.2827 39.1871C56.2566 38.9267 56.1785 38.7965 56.0483 38.7965C55.9441 38.7965 55.853 38.9137 55.7748 39.1481L36.3608 81.1793C36.2566 81.3616 35.9571 81.4528 35.4623 81.4528C34.9675 81.4528 34.6811 81.3486 34.603 81.1403L15.4623 39.0309C15.3061 38.6663 15.1498 38.484 14.9936 38.484C14.8634 38.484 14.7983 38.7705 14.7983 39.3434C14.7983 40.5413 14.4858 46.1923 13.8608 56.2965C13.2358 66.4007 12.9233 72.7028 12.9233 75.2028V76.8043C13.2358 78.2887 14.7071 79.2522 17.3373 79.6949C18.0925 79.8252 18.8868 79.8903 19.7202 79.8903ZM84.5639 60.8668C84.1212 60.8668 83.8998 61.8173 83.8998 63.7184C83.8998 67.7548 85.0978 71.1403 87.4936 73.8746C89.8894 76.609 92.8582 77.9762 96.3998 77.9762C99.9675 77.9762 103.392 76.4397 106.673 73.3668C106.725 73.3147 106.79 73.2887 106.869 73.2887H107.064C107.22 73.2887 107.363 73.4189 107.494 73.6793C107.65 73.9137 107.793 74.0699 107.923 74.1481C104.902 77.8199 101.348 80.359 97.2592 81.7653C95.853 82.2601 94.2644 82.5074 92.4936 82.5074C90.7228 82.5074 88.9259 82.0257 87.103 81.0621C85.28 80.0726 83.7175 78.7835 82.4155 77.1949C79.655 73.8877 78.2748 69.7731 78.2748 64.8512C78.2748 59.9033 79.7722 55.3981 82.767 51.3356C85.7879 47.2731 89.9285 45.2418 95.1889 45.2418C98.9649 45.2418 102.051 46.9345 104.447 50.3199C106.843 53.6793 108.04 56.6351 108.04 59.1871C108.04 60.3069 107.767 60.8668 107.22 60.8668H84.5639ZM84.9936 57.1168C84.9936 57.6116 85.228 57.859 85.6967 57.859H100.423C101.1 57.859 101.439 57.4554 101.439 56.6481C101.439 54.7731 100.593 52.859 98.8998 50.9059C97.2332 48.9267 95.3972 47.9371 93.392 47.9371C91.4389 47.9371 89.655 48.8226 88.0405 50.5934C86.4519 52.3642 85.4363 54.3824 84.9936 56.6481V57.1168ZM114.603 81.4528C114.343 81.4007 114.212 81.2184 114.212 80.9059C114.212 80.4371 114.824 80.1246 116.048 79.9684C118.861 79.5517 120.267 78.0673 120.267 75.5153V54.8512C120.267 53.7574 119.668 53.0022 118.47 52.5856C117.949 52.4033 117.389 52.2601 116.79 52.1559C116.192 52.0257 115.71 51.9085 115.345 51.8043C115.007 51.7002 114.785 51.609 114.681 51.5309C114.603 51.4267 114.564 51.2314 114.564 50.9449C114.564 50.6324 114.759 50.372 115.15 50.1637L125.111 45.4762C125.423 45.3199 125.619 45.2418 125.697 45.2418C126.139 45.2418 126.361 45.5543 126.361 46.1793V75.5153C126.361 78.0673 127.767 79.5517 130.58 79.9684C131.803 80.1246 132.415 80.3981 132.415 80.7887C132.415 81.1793 132.285 81.4007 132.025 81.4528H114.603ZM122.728 34.2653C121.66 34.2653 120.71 33.9267 119.876 33.2496C119.069 32.5726 118.665 31.6351 118.665 30.4371C118.665 29.2132 119.056 28.2496 119.837 27.5465C120.619 26.8434 121.543 26.4918 122.611 26.4918C123.705 26.4918 124.616 26.9085 125.345 27.7418C126.1 28.5752 126.478 29.4736 126.478 30.4371C126.478 31.4007 126.126 32.2861 125.423 33.0934C124.72 33.8746 123.822 34.2653 122.728 34.2653ZM160.853 53.4449C160.54 53.3929 160.085 53.2236 159.486 52.9371C157.324 51.9476 155.632 51.4528 154.408 51.4528C153.184 51.4528 151.895 52.221 150.54 53.7574C149.212 55.2679 148.548 56.6351 148.548 57.859V75.5153C148.548 77.4684 149.681 78.7705 151.947 79.4215C152.936 79.6819 153.861 79.8772 154.72 80.0074C155.58 80.1116 156.126 80.2158 156.361 80.3199C156.621 80.4241 156.751 80.6324 156.751 80.9449C156.751 81.2314 156.621 81.4007 156.361 81.4528H136.79C136.53 81.4007 136.4 81.2184 136.4 80.9059C136.4 80.4371 137.012 80.1246 138.236 79.9684C141.048 79.5517 142.455 78.0673 142.455 75.5153V54.8512C142.455 53.7574 141.856 53.0022 140.658 52.5856C140.137 52.4033 139.577 52.2601 138.978 52.1559C138.379 52.0257 137.897 51.9085 137.533 51.8043C137.194 51.7002 136.973 51.609 136.869 51.5309C136.79 51.4267 136.751 51.2314 136.751 50.9449C136.751 50.6324 136.947 50.372 137.337 50.1637L147.298 45.4762C147.611 45.3199 147.806 45.2418 147.884 45.2418C148.327 45.2418 148.548 45.5543 148.548 46.1793V52.5074C148.548 52.8199 148.626 52.9762 148.783 52.9762C148.991 52.9762 149.525 52.3642 150.384 51.1403C152.858 47.6767 154.902 45.9449 156.517 45.9449C157.428 45.9449 158.822 46.3095 160.697 47.0387C162.598 47.7679 163.548 48.3798 163.548 48.8746C163.548 49.4736 163.249 50.3851 162.65 51.609C162.051 52.833 161.452 53.4449 160.853 53.4449ZM190.462 75.0074C190.462 75.6845 190.775 76.2314 191.4 76.6481C192.051 77.0387 192.793 77.234 193.626 77.234C194.46 77.234 195.15 77.0257 195.697 76.609C196.27 76.1663 196.66 75.9449 196.869 75.9449C197.077 75.9449 197.181 76.2314 197.181 76.8043C197.181 77.3512 196.921 77.8199 196.4 78.2106C192.494 81.0752 189.85 82.5074 188.47 82.5074C186.803 82.5074 185.449 80.7757 184.408 77.3121C184.33 77.0517 184.264 76.9345 184.212 76.9606C180.983 79.3824 178.952 80.8408 178.119 81.3356C175.983 82.5595 173.835 82.7548 171.673 81.9215C169.538 81.0882 167.988 79.708 167.025 77.7809C166.556 76.7913 166.322 75.7366 166.322 74.6168C166.322 72.4033 167.142 70.6455 168.783 69.3434C170.423 68.0413 173.548 66.7913 178.158 65.5934C179.72 65.1767 181.113 64.6429 182.337 63.9918C183.561 63.3408 184.199 62.9241 184.251 62.7418C184.33 62.5595 184.369 62.3903 184.369 62.234V54.734C184.369 51.7913 183.223 49.721 180.931 48.5231C180.176 48.1324 179.264 47.9371 178.197 47.9371C177.155 47.9371 176.087 48.3538 174.994 49.1871C173.926 50.0205 173.392 51.2054 173.392 52.7418L173.587 54.2653C173.431 54.5778 172.494 55.0986 170.775 55.8278C169.056 56.5569 168.067 56.9476 167.806 56.9996C167.389 56.9996 167.181 56.5048 167.181 55.5153C167.181 54.4996 167.481 53.3798 168.08 52.1559C168.678 50.9319 169.525 49.8121 170.619 48.7965C173.171 46.4267 176.087 45.2418 179.369 45.2418C182.65 45.2418 185.319 46.1533 187.376 47.9762C189.434 49.7731 190.462 51.9215 190.462 54.4215V75.0074ZM172.455 73.8746C172.455 75.1246 172.936 76.2184 173.9 77.1559C174.863 78.0673 175.957 78.5231 177.181 78.5231C178.431 78.5231 179.942 78.0022 181.712 76.9606C183.483 75.8929 184.369 74.7991 184.369 73.6793V65.7496C184.369 65.4632 184.303 65.3199 184.173 65.3199C184.043 65.3199 183.952 65.333 183.9 65.359L174.837 69.5778C173.9 70.2548 173.262 70.8278 172.923 71.2965C172.611 71.7653 172.455 72.6246 172.455 73.8746Z" fill="#6D1717"/>
<path d="M21.7202 78.8903C21.8764 78.8903 21.9545 78.9944 21.9545 79.2028V80.1403C21.9545 80.3486 21.8764 80.4528 21.7202 80.4528H3.47797C3.26963 80.4528 3.16547 80.3486 3.16547 80.1403V79.2028C3.16547 78.9944 3.26963 78.8903 3.47797 78.8903C7.7488 78.8903 10.0665 77.0543 10.4311 73.3824C10.5353 72.3147 10.6394 70.5439 10.7436 68.0699C10.8738 65.5699 11.2254 60.2184 11.7983 52.0153C12.3712 43.7861 12.6577 37.1324 12.6577 32.0543V30.609C12.6577 29.5673 12.0587 28.6949 10.8608 27.9918C9.6889 27.2887 8.82953 26.9371 8.28265 26.9371C7.73578 26.9371 7.46234 26.833 7.46234 26.6246V25.6871C7.46234 25.4788 7.56651 25.3746 7.77484 25.3746H19.0639C19.5587 25.4528 19.9623 25.7392 20.2748 26.234L38.5952 67.0543C38.7254 67.2366 38.8295 67.3929 38.9077 67.5231C38.9858 67.6533 39.1811 67.7184 39.4936 67.7184C39.8061 67.6923 40.0405 67.458 40.1967 67.0153L58.3217 26.9371C58.8686 25.8955 59.3634 25.3746 59.8061 25.3746H71.1733C71.3816 25.3746 71.4858 25.4788 71.4858 25.6871V26.6246C71.4858 26.833 71.4207 26.9371 71.2905 26.9371C70.5092 26.9371 69.5457 27.1976 68.3998 27.7184C66.655 28.4996 65.7827 29.6585 65.7827 31.1949L68.1264 74.359C68.1785 75.7132 68.8816 76.8069 70.2358 77.6403C71.5899 78.4736 73.3608 78.8903 75.5483 78.8903C75.7566 78.8903 75.8608 78.9944 75.8608 79.2028V80.1403C75.8608 80.3486 75.7566 80.4528 75.5483 80.4528H53.3608C53.1524 80.4528 53.0483 80.3486 53.0483 80.1403V79.2028C53.0483 78.9944 53.1524 78.8903 53.3608 78.8903C58.0222 78.8903 60.353 77.7574 60.353 75.4918L58.2827 38.1871C58.2566 37.9267 58.1785 37.7965 58.0483 37.7965C57.9441 37.7965 57.853 37.9137 57.7748 38.1481L38.3608 80.1793C38.2566 80.3616 37.9571 80.4528 37.4623 80.4528C36.9675 80.4528 36.6811 80.3486 36.603 80.1403L17.4623 38.0309C17.3061 37.6663 17.1498 37.484 16.9936 37.484C16.8634 37.484 16.7983 37.7705 16.7983 38.3434C16.7983 39.5413 16.4858 45.1923 15.8608 55.2965C15.2358 65.4007 14.9233 71.7028 14.9233 74.2028V75.8043C15.2358 77.2887 16.7071 78.2522 19.3373 78.6949C20.0925 78.8252 20.8868 78.8903 21.7202 78.8903ZM86.5639 59.8668C86.1212 59.8668 85.8998 60.8173 85.8998 62.7184C85.8998 66.7548 87.0978 70.1403 89.4936 72.8746C91.8894 75.609 94.8582 76.9762 98.3998 76.9762C101.968 76.9762 105.392 75.4397 108.673 72.3668C108.725 72.3147 108.79 72.2887 108.869 72.2887H109.064C109.22 72.2887 109.363 72.4189 109.494 72.6793C109.65 72.9137 109.793 73.0699 109.923 73.1481C106.902 76.8199 103.348 79.359 99.2592 80.7653C97.853 81.2601 96.2644 81.5074 94.4936 81.5074C92.7228 81.5074 90.9259 81.0257 89.103 80.0621C87.28 79.0726 85.7175 77.7835 84.4155 76.1949C81.655 72.8877 80.2748 68.7731 80.2748 63.8512C80.2748 58.9033 81.7722 54.3981 84.767 50.3356C87.7879 46.2731 91.9285 44.2418 97.1889 44.2418C100.965 44.2418 104.051 45.9345 106.447 49.3199C108.843 52.6793 110.04 55.6351 110.04 58.1871C110.04 59.3069 109.767 59.8668 109.22 59.8668H86.5639ZM86.9936 56.1168C86.9936 56.6116 87.228 56.859 87.6967 56.859H102.423C103.1 56.859 103.439 56.4554 103.439 55.6481C103.439 53.7731 102.593 51.859 100.9 49.9059C99.2332 47.9267 97.3972 46.9371 95.392 46.9371C93.4389 46.9371 91.655 47.8226 90.0405 49.5934C88.4519 51.3642 87.4363 53.3824 86.9936 55.6481V56.1168ZM116.603 80.4528C116.343 80.4007 116.212 80.2184 116.212 79.9059C116.212 79.4371 116.824 79.1246 118.048 78.9684C120.861 78.5517 122.267 77.0673 122.267 74.5153V53.8512C122.267 52.7574 121.668 52.0022 120.47 51.5856C119.949 51.4033 119.389 51.2601 118.79 51.1559C118.192 51.0257 117.71 50.9085 117.345 50.8043C117.007 50.7002 116.785 50.609 116.681 50.5309C116.603 50.4267 116.564 50.2314 116.564 49.9449C116.564 49.6324 116.759 49.372 117.15 49.1637L127.111 44.4762C127.423 44.3199 127.619 44.2418 127.697 44.2418C128.139 44.2418 128.361 44.5543 128.361 45.1793V74.5153C128.361 77.0673 129.767 78.5517 132.58 78.9684C133.803 79.1246 134.415 79.3981 134.415 79.7887C134.415 80.1793 134.285 80.4007 134.025 80.4528H116.603ZM124.728 33.2653C123.66 33.2653 122.71 32.9267 121.876 32.2496C121.069 31.5726 120.665 30.6351 120.665 29.4371C120.665 28.2132 121.056 27.2496 121.837 26.5465C122.619 25.8434 123.543 25.4918 124.611 25.4918C125.705 25.4918 126.616 25.9085 127.345 26.7418C128.1 27.5752 128.478 28.4736 128.478 29.4371C128.478 30.4007 128.126 31.2861 127.423 32.0934C126.72 32.8746 125.822 33.2653 124.728 33.2653ZM162.853 52.4449C162.54 52.3929 162.085 52.2236 161.486 51.9371C159.324 50.9476 157.632 50.4528 156.408 50.4528C155.184 50.4528 153.895 51.221 152.54 52.7574C151.212 54.2679 150.548 55.6351 150.548 56.859V74.5153C150.548 76.4684 151.681 77.7705 153.947 78.4215C154.936 78.6819 155.861 78.8772 156.72 79.0074C157.58 79.1116 158.126 79.2158 158.361 79.3199C158.621 79.4241 158.751 79.6324 158.751 79.9449C158.751 80.2314 158.621 80.4007 158.361 80.4528H138.79C138.53 80.4007 138.4 80.2184 138.4 79.9059C138.4 79.4371 139.012 79.1246 140.236 78.9684C143.048 78.5517 144.455 77.0673 144.455 74.5153V53.8512C144.455 52.7574 143.856 52.0022 142.658 51.5856C142.137 51.4033 141.577 51.2601 140.978 51.1559C140.379 51.0257 139.897 50.9085 139.533 50.8043C139.194 50.7002 138.973 50.609 138.869 50.5309C138.79 50.4267 138.751 50.2314 138.751 49.9449C138.751 49.6324 138.947 49.372 139.337 49.1637L149.298 44.4762C149.611 44.3199 149.806 44.2418 149.884 44.2418C150.327 44.2418 150.548 44.5543 150.548 45.1793V51.5074C150.548 51.8199 150.626 51.9762 150.783 51.9762C150.991 51.9762 151.525 51.3642 152.384 50.1403C154.858 46.6767 156.902 44.9449 158.517 44.9449C159.428 44.9449 160.822 45.3095 162.697 46.0387C164.598 46.7679 165.548 47.3798 165.548 47.8746C165.548 48.4736 165.249 49.3851 164.65 50.609C164.051 51.833 163.452 52.4449 162.853 52.4449ZM192.462 74.0074C192.462 74.6845 192.775 75.2314 193.4 75.6481C194.051 76.0387 194.793 76.234 195.626 76.234C196.46 76.234 197.15 76.0257 197.697 75.609C198.27 75.1663 198.66 74.9449 198.869 74.9449C199.077 74.9449 199.181 75.2314 199.181 75.8043C199.181 76.3512 198.921 76.8199 198.4 77.2106C194.494 80.0752 191.85 81.5074 190.47 81.5074C188.803 81.5074 187.449 79.7757 186.408 76.3121C186.33 76.0517 186.264 75.9345 186.212 75.9606C182.983 78.3824 180.952 79.8408 180.119 80.3356C177.983 81.5595 175.835 81.7548 173.673 80.9215C171.538 80.0882 169.988 78.708 169.025 76.7809C168.556 75.7913 168.322 74.7366 168.322 73.6168C168.322 71.4033 169.142 69.6455 170.783 68.3434C172.423 67.0413 175.548 65.7913 180.158 64.5934C181.72 64.1767 183.113 63.6429 184.337 62.9918C185.561 62.3408 186.199 61.9241 186.251 61.7418C186.33 61.5595 186.369 61.3903 186.369 61.234V53.734C186.369 50.7913 185.223 48.721 182.931 47.5231C182.176 47.1324 181.264 46.9371 180.197 46.9371C179.155 46.9371 178.087 47.3538 176.994 48.1871C175.926 49.0205 175.392 50.2054 175.392 51.7418L175.587 53.2653C175.431 53.5778 174.494 54.0986 172.775 54.8278C171.056 55.5569 170.067 55.9476 169.806 55.9996C169.389 55.9996 169.181 55.5048 169.181 54.5153C169.181 53.4996 169.481 52.3798 170.08 51.1559C170.678 49.9319 171.525 48.8121 172.619 47.7965C175.171 45.4267 178.087 44.2418 181.369 44.2418C184.65 44.2418 187.319 45.1533 189.376 46.9762C191.434 48.7731 192.462 50.9215 192.462 53.4215V74.0074ZM174.455 72.8746C174.455 74.1246 174.936 75.2184 175.9 76.1559C176.863 77.0673 177.957 77.5231 179.181 77.5231C180.431 77.5231 181.942 77.0022 183.712 75.9606C185.483 74.8929 186.369 73.7991 186.369 72.6793V64.7496C186.369 64.4632 186.303 64.3199 186.173 64.3199C186.043 64.3199 185.952 64.333 185.9 64.359L176.837 68.5778C175.9 69.2548 175.262 69.8278 174.923 70.2965C174.611 70.7653 174.455 71.6246 174.455 72.8746Z" fill="#B42D2D"/>
<path d="M23.5703 77.4375C23.7266 77.4375 23.8047 77.5417 23.8047 77.75V78.6875C23.8047 78.8958 23.7266 79 23.5703 79H5.32812C5.11979 79 5.01562 78.8958 5.01562 78.6875V77.75C5.01562 77.5417 5.11979 77.4375 5.32812 77.4375C9.59896 77.4375 11.9167 75.6016 12.2812 71.9297C12.3854 70.862 12.4896 69.0911 12.5938 66.6172C12.724 64.1172 13.0755 58.7656 13.6484 50.5625C14.2214 42.3333 14.5078 35.6797 14.5078 30.6016V29.1562C14.5078 28.1146 13.9089 27.2422 12.7109 26.5391C11.5391 25.8359 10.6797 25.4844 10.1328 25.4844C9.58594 25.4844 9.3125 25.3802 9.3125 25.1719V24.2344C9.3125 24.026 9.41667 23.9219 9.625 23.9219H20.9141C21.4089 24 21.8125 24.2865 22.125 24.7812L40.4453 65.6016C40.5755 65.7839 40.6797 65.9401 40.7578 66.0703C40.8359 66.2005 41.0312 66.2656 41.3438 66.2656C41.6562 66.2396 41.8906 66.0052 42.0469 65.5625L60.1719 25.4844C60.7188 24.4427 61.2135 23.9219 61.6562 23.9219H73.0234C73.2318 23.9219 73.3359 24.026 73.3359 24.2344V25.1719C73.3359 25.3802 73.2708 25.4844 73.1406 25.4844C72.3594 25.4844 71.3958 25.7448 70.25 26.2656C68.5052 27.0469 67.6328 28.2057 67.6328 29.7422L69.9766 72.9062C70.0286 74.2604 70.7318 75.3542 72.0859 76.1875C73.4401 77.0208 75.2109 77.4375 77.3984 77.4375C77.6068 77.4375 77.7109 77.5417 77.7109 77.75V78.6875C77.7109 78.8958 77.6068 79 77.3984 79H55.2109C55.0026 79 54.8984 78.8958 54.8984 78.6875V77.75C54.8984 77.5417 55.0026 77.4375 55.2109 77.4375C59.8724 77.4375 62.2031 76.3047 62.2031 74.0391L60.1328 36.7344C60.1068 36.474 60.0286 36.3438 59.8984 36.3438C59.7943 36.3438 59.7031 36.4609 59.625 36.6953L40.2109 78.7266C40.1068 78.9089 39.8073 79 39.3125 79C38.8177 79 38.5312 78.8958 38.4531 78.6875L19.3125 36.5781C19.1562 36.2135 19 36.0312 18.8438 36.0312C18.7135 36.0312 18.6484 36.3177 18.6484 36.8906C18.6484 38.0885 18.3359 43.7396 17.7109 53.8438C17.0859 63.9479 16.7734 70.25 16.7734 72.75V74.3516C17.0859 75.8359 18.5573 76.7995 21.1875 77.2422C21.9427 77.3724 22.737 77.4375 23.5703 77.4375ZM88.4141 58.4141C87.9714 58.4141 87.75 59.3646 87.75 61.2656C87.75 65.3021 88.9479 68.6875 91.3438 71.4219C93.7396 74.1562 96.7083 75.5234 100.25 75.5234C103.818 75.5234 107.242 73.987 110.523 70.9141C110.576 70.862 110.641 70.8359 110.719 70.8359H110.914C111.07 70.8359 111.214 70.9661 111.344 71.2266C111.5 71.4609 111.643 71.6172 111.773 71.6953C108.753 75.3672 105.198 77.9062 101.109 79.3125C99.7031 79.8073 98.1146 80.0547 96.3438 80.0547C94.5729 80.0547 92.776 79.5729 90.9531 78.6094C89.1302 77.6198 87.5677 76.3307 86.2656 74.7422C83.5052 71.4349 82.125 67.3203 82.125 62.3984C82.125 57.4505 83.6224 52.9453 86.6172 48.8828C89.638 44.8203 93.7786 42.7891 99.0391 42.7891C102.815 42.7891 105.901 44.4818 108.297 47.8672C110.693 51.2266 111.891 54.1823 111.891 56.7344C111.891 57.8542 111.617 58.4141 111.07 58.4141H88.4141ZM88.8438 54.6641C88.8438 55.1589 89.0781 55.4062 89.5469 55.4062H104.273C104.951 55.4062 105.289 55.0026 105.289 54.1953C105.289 52.3203 104.443 50.4062 102.75 48.4531C101.083 46.474 99.2474 45.4844 97.2422 45.4844C95.2891 45.4844 93.5052 46.3698 91.8906 48.1406C90.3021 49.9115 89.2865 51.9297 88.8438 54.1953V54.6641ZM118.453 79C118.193 78.9479 118.062 78.7656 118.062 78.4531C118.062 77.9844 118.674 77.6719 119.898 77.5156C122.711 77.099 124.117 75.6146 124.117 73.0625V52.3984C124.117 51.3047 123.518 50.5495 122.32 50.1328C121.799 49.9505 121.24 49.8073 120.641 49.7031C120.042 49.5729 119.56 49.4557 119.195 49.3516C118.857 49.2474 118.635 49.1562 118.531 49.0781C118.453 48.974 118.414 48.7786 118.414 48.4922C118.414 48.1797 118.609 47.9193 119 47.7109L128.961 43.0234C129.273 42.8672 129.469 42.7891 129.547 42.7891C129.99 42.7891 130.211 43.1016 130.211 43.7266V73.0625C130.211 75.6146 131.617 77.099 134.43 77.5156C135.654 77.6719 136.266 77.9453 136.266 78.3359C136.266 78.7266 136.135 78.9479 135.875 79H118.453ZM126.578 31.8125C125.51 31.8125 124.56 31.474 123.727 30.7969C122.919 30.1198 122.516 29.1823 122.516 27.9844C122.516 26.7604 122.906 25.7969 123.688 25.0938C124.469 24.3906 125.393 24.0391 126.461 24.0391C127.555 24.0391 128.466 24.4557 129.195 25.2891C129.951 26.1224 130.328 27.0208 130.328 27.9844C130.328 28.9479 129.977 29.8333 129.273 30.6406C128.57 31.4219 127.672 31.8125 126.578 31.8125ZM164.703 50.9922C164.391 50.9401 163.935 50.7708 163.336 50.4844C161.174 49.4948 159.482 49 158.258 49C157.034 49 155.745 49.7682 154.391 51.3047C153.062 52.8151 152.398 54.1823 152.398 55.4062V73.0625C152.398 75.0156 153.531 76.3177 155.797 76.9688C156.786 77.2292 157.711 77.4245 158.57 77.5547C159.43 77.6589 159.977 77.763 160.211 77.8672C160.471 77.9714 160.602 78.1797 160.602 78.4922C160.602 78.7786 160.471 78.9479 160.211 79H140.641C140.38 78.9479 140.25 78.7656 140.25 78.4531C140.25 77.9844 140.862 77.6719 142.086 77.5156C144.898 77.099 146.305 75.6146 146.305 73.0625V52.3984C146.305 51.3047 145.706 50.5495 144.508 50.1328C143.987 49.9505 143.427 49.8073 142.828 49.7031C142.229 49.5729 141.747 49.4557 141.383 49.3516C141.044 49.2474 140.823 49.1562 140.719 49.0781C140.641 48.974 140.602 48.7786 140.602 48.4922C140.602 48.1797 140.797 47.9193 141.188 47.7109L151.148 43.0234C151.461 42.8672 151.656 42.7891 151.734 42.7891C152.177 42.7891 152.398 43.1016 152.398 43.7266V50.0547C152.398 50.3672 152.477 50.5234 152.633 50.5234C152.841 50.5234 153.375 49.9115 154.234 48.6875C156.708 45.224 158.753 43.4922 160.367 43.4922C161.279 43.4922 162.672 43.8568 164.547 44.5859C166.448 45.3151 167.398 45.9271 167.398 46.4219C167.398 47.0208 167.099 47.9323 166.5 49.1562C165.901 50.3802 165.302 50.9922 164.703 50.9922ZM194.312 72.5547C194.312 73.2318 194.625 73.7786 195.25 74.1953C195.901 74.5859 196.643 74.7812 197.477 74.7812C198.31 74.7812 199 74.5729 199.547 74.1562C200.12 73.7135 200.51 73.4922 200.719 73.4922C200.927 73.4922 201.031 73.7786 201.031 74.3516C201.031 74.8984 200.771 75.3672 200.25 75.7578C196.344 78.6224 193.701 80.0547 192.32 80.0547C190.654 80.0547 189.299 78.3229 188.258 74.8594C188.18 74.599 188.115 74.4818 188.062 74.5078C184.833 76.9297 182.802 78.388 181.969 78.8828C179.833 80.1068 177.685 80.3021 175.523 79.4688C173.388 78.6354 171.839 77.2552 170.875 75.3281C170.406 74.3385 170.172 73.2839 170.172 72.1641C170.172 69.9505 170.992 68.1927 172.633 66.8906C174.273 65.5885 177.398 64.3385 182.008 63.1406C183.57 62.724 184.964 62.1901 186.188 61.5391C187.411 60.888 188.049 60.4714 188.102 60.2891C188.18 60.1068 188.219 59.9375 188.219 59.7812V52.2812C188.219 49.3385 187.073 47.2682 184.781 46.0703C184.026 45.6797 183.115 45.4844 182.047 45.4844C181.005 45.4844 179.938 45.901 178.844 46.7344C177.776 47.5677 177.242 48.7526 177.242 50.2891L177.438 51.8125C177.281 52.125 176.344 52.6458 174.625 53.375C172.906 54.1042 171.917 54.4948 171.656 54.5469C171.24 54.5469 171.031 54.0521 171.031 53.0625C171.031 52.0469 171.331 50.9271 171.93 49.7031C172.529 48.4792 173.375 47.3594 174.469 46.3438C177.021 43.974 179.938 42.7891 183.219 42.7891C186.5 42.7891 189.169 43.7005 191.227 45.5234C193.284 47.3203 194.312 49.4688 194.312 51.9688V72.5547ZM176.305 71.4219C176.305 72.6719 176.786 73.7656 177.75 74.7031C178.714 75.6146 179.807 76.0703 181.031 76.0703C182.281 76.0703 183.792 75.5495 185.562 74.5078C187.333 73.4401 188.219 72.3464 188.219 71.2266V63.2969C188.219 63.0104 188.154 62.8672 188.023 62.8672C187.893 62.8672 187.802 62.8802 187.75 62.9062L178.688 67.125C177.75 67.8021 177.112 68.375 176.773 68.8438C176.461 69.3125 176.305 70.1719 176.305 71.4219Z" fill="white"/>
</svg>
