<svg width="269" height="110" viewBox="0 0 269 110" fill="none" xmlns="http://www.w3.org/2000/svg">
<path d="M19.5703 79.4375C19.7266 79.4375 19.8047 79.5417 19.8047 79.75V80.6875C19.8047 80.8958 19.7266 81 19.5703 81H1.32812C1.11979 81 1.01562 80.8958 1.01562 80.6875V79.75C1.01562 79.5417 1.11979 79.4375 1.32812 79.4375C5.59896 79.4375 7.91667 77.6016 8.28125 73.9297C8.38542 72.862 8.48958 71.0911 8.59375 68.6172C8.72396 66.1172 9.07552 60.7656 9.64844 52.5625C10.2214 44.3333 10.5078 37.6797 10.5078 32.6016V31.1562C10.5078 30.1146 9.90885 29.2422 8.71094 28.5391C7.53906 27.8359 6.67969 27.4844 6.13281 27.4844C5.58594 27.4844 5.3125 27.3802 5.3125 27.1719V26.2344C5.3125 26.026 5.41667 25.9219 5.625 25.9219H16.9141C17.4089 26 17.8125 26.2865 18.125 26.7812L36.4453 67.6016C36.5755 67.7839 36.6797 67.9401 36.7578 68.0703C36.8359 68.2005 37.0312 68.2656 37.3438 68.2656C37.6562 68.2396 37.8906 68.0052 38.0469 67.5625L56.1719 27.4844C56.7188 26.4427 57.2135 25.9219 57.6562 25.9219H69.0234C69.2318 25.9219 69.3359 26.026 69.3359 26.2344V27.1719C69.3359 27.3802 69.2708 27.4844 69.1406 27.4844C68.3594 27.4844 67.3958 27.7448 66.25 28.2656C64.5052 29.0469 63.6328 30.2057 63.6328 31.7422L65.9766 74.9062C66.0286 76.2604 66.7318 77.3542 68.0859 78.1875C69.4401 79.0208 71.2109 79.4375 73.3984 79.4375C73.6068 79.4375 73.7109 79.5417 73.7109 79.75V80.6875C73.7109 80.8958 73.6068 81 73.3984 81H51.2109C51.0026 81 50.8984 80.8958 50.8984 80.6875V79.75C50.8984 79.5417 51.0026 79.4375 51.2109 79.4375C55.8724 79.4375 58.2031 78.3047 58.2031 76.0391L56.1328 38.7344C56.1068 38.474 56.0286 38.3438 55.8984 38.3438C55.7943 38.3438 55.7031 38.4609 55.625 38.6953L36.2109 80.7266C36.1068 80.9089 35.8073 81 35.3125 81C34.8177 81 34.5312 80.8958 34.4531 80.6875L15.3125 38.5781C15.1562 38.2135 15 38.0312 14.8438 38.0312C14.7135 38.0312 14.6484 38.3177 14.6484 38.8906C14.6484 40.0885 14.3359 45.7396 13.7109 55.8438C13.0859 65.9479 12.7734 72.25 12.7734 74.75V76.3516C13.0859 77.8359 14.5573 78.7995 17.1875 79.2422C17.9427 79.3724 18.737 79.4375 19.5703 79.4375ZM75.6641 80.6875V79.5938C75.6641 79.3854 75.7682 79.2812 75.9766 79.2812H76.8359C77.9297 79.2031 79.0495 79.1641 80.1953 79.1641C81.3411 79.138 82.3828 78.9948 83.3203 78.7344C85.4557 78.1094 86.5234 76.5469 86.5234 74.0469V32.875C86.5234 30.2969 85 28.6562 81.9531 27.9531C81.0938 27.7708 80.2214 27.6146 79.3359 27.4844H78.5156C78.3073 27.4844 78.2031 27.3802 78.2031 27.1719V26.2344C78.2031 26.026 78.3073 25.9219 78.5156 25.9219H115.664C116.133 25.9219 116.471 26.013 116.68 26.1953C116.888 26.3516 117.018 26.7161 117.07 27.2891L117.773 38.6172C117.773 38.8776 117.578 39.0078 117.188 39.0078C116.797 39.0078 116.51 38.8906 116.328 38.6562C116.172 38.3958 115.964 37.4453 115.703 35.8047C115.469 34.1641 115.026 32.7969 114.375 31.7031C113.724 30.6094 112.578 29.9193 110.938 29.6328H94.6484C94.3099 29.6328 94.1406 29.8021 94.1406 30.1406V50.3359C94.1406 50.5964 94.2708 50.7266 94.5312 50.7266H108.047C111.536 50.7266 113.281 48.6953 113.281 44.6328C113.281 44.4245 113.385 44.3203 113.594 44.3203H114.531C114.74 44.3203 114.844 44.4245 114.844 44.6328V61.3516C114.844 61.5599 114.74 61.6641 114.531 61.6641H113.594C113.385 61.6641 113.281 61.5599 113.281 61.3516C113.281 57.4974 112.161 55.2708 109.922 54.6719C109.297 54.5156 108.633 54.4375 107.93 54.4375H94.5312C94.2708 54.4375 94.1406 54.5677 94.1406 54.8281V73.8516C94.1406 75.8047 95.0391 76.9115 96.8359 77.1719C97.3568 77.25 97.9036 77.2891 98.4766 77.2891H111.484C114.167 77.2891 116.25 76.1042 117.734 73.7344C118.802 72.0417 119.453 70.1016 119.688 67.9141C119.766 67.1849 120.156 66.8203 120.859 66.8203C121.172 66.8203 121.328 66.9896 121.328 67.3281L120.039 80.4531C119.883 80.8177 119.701 81 119.492 81H75.9766C75.7682 81 75.6641 80.8958 75.6641 80.6875ZM134.609 32.1719C134.609 29.0469 132.812 27.4844 129.219 27.4844C128.646 27.4844 128.359 27.3802 128.359 27.1719V26.2344C128.359 26.026 128.464 25.9219 128.672 25.9219H148.242C148.451 25.9219 148.555 26.026 148.555 26.2344V27.1719C148.555 27.3802 147.982 27.4844 146.836 27.4844C145.69 27.4844 144.635 27.849 143.672 28.5781C142.708 29.3073 142.227 30.8047 142.227 33.0703V74.75C142.227 77.875 144.036 79.4375 147.656 79.4375C148.203 79.4375 148.477 79.5417 148.477 79.75V80.6875C148.477 80.8958 148.372 81 148.164 81H128.594C128.385 81 128.281 80.8958 128.281 80.6875V79.75C128.281 79.5417 128.854 79.4375 130 79.4375C131.146 79.4375 132.201 79.0729 133.164 78.3438C134.128 77.6146 134.609 76.1172 134.609 73.8516V32.1719ZM154.141 81C153.932 81 153.828 80.7396 153.828 80.2188V79.75C153.828 79.5417 153.932 79.4375 154.141 79.4375C154.297 79.4375 154.544 79.4115 154.883 79.3594C155.221 79.3073 155.573 79.2552 155.938 79.2031C156.302 79.151 156.641 79.099 156.953 79.0469C157.266 78.9688 157.487 78.9167 157.617 78.8906C160.273 78.2917 161.602 76.7812 161.602 74.3594V33.1094C161.602 30.8698 160.703 29.2812 158.906 28.3438C157.839 27.7708 156.693 27.4844 155.469 27.4844H153.984C153.776 27.4844 153.672 27.3802 153.672 27.1719V26.2344C153.672 26.026 153.828 25.9219 154.141 25.9219L175.586 25.3359H179.531C184.141 25.6484 187.995 27.3281 191.094 30.375C194.219 33.3958 195.781 37.1328 195.781 41.5859C195.781 46.013 193.932 49.4635 190.234 51.9375C189.089 52.6927 187.852 53.3698 186.523 53.9688L198.359 73.3047C200.417 76.6901 203.177 79.0729 206.641 80.4531C206.927 80.5312 207.07 80.7135 207.07 81C207.07 81.651 206.641 81.9766 205.781 81.9766C199.922 81.9766 195.26 79.75 191.797 75.2969C191.042 74.3073 190.286 73.2005 189.531 71.9766L179.414 56.1172L170.117 55.6875H169.805C169.414 55.6875 169.219 55.8698 169.219 56.2344V74.2422C169.219 75.6745 169.622 76.7422 170.43 77.4453C171.237 78.1484 172.63 78.6302 174.609 78.8906C175.13 78.9688 175.768 79.0859 176.523 79.2422C177.279 79.3724 177.786 79.4375 178.047 79.4375C178.333 79.4375 178.477 79.5417 178.477 79.75V80.6875C178.477 80.8958 178.372 81 178.164 81H154.141ZM172.383 27.4062C172.07 27.4062 171.732 27.4193 171.367 27.4453C171.029 27.4453 170.586 27.4583 170.039 27.4844C169.492 27.4844 169.219 27.6927 169.219 28.1094V51.7812L169.297 52.9531C169.375 53.5 169.622 53.7865 170.039 53.8125L174.023 54.0469C181.341 54.0469 185.755 51.4427 187.266 46.2344C187.76 44.5938 188.008 42.7188 188.008 40.6094C188.008 36.4948 186.719 33.2526 184.141 30.8828C181.589 28.513 178.32 27.3281 174.336 27.3281C173.971 27.3281 173.633 27.3411 173.32 27.3672C173.008 27.3672 172.695 27.3802 172.383 27.4062ZM228.359 80.6875C228.359 80.8958 228.255 81 228.047 81H208.086C207.878 81 207.773 80.8958 207.773 80.6875V79.75C207.773 79.5417 207.943 79.4375 208.281 79.4375C211.849 79.2812 214.258 77.3802 215.508 73.7344L231.445 27.6016C231.471 27.5495 231.484 27.4844 231.484 27.4062L231.055 26.1172C231.055 25.987 231.107 25.9219 231.211 25.9219H239.023C239.076 25.9479 239.141 25.974 239.219 26C239.323 26.026 239.401 26.1042 239.453 26.2344L255.977 72.6016C256.341 73.3047 256.628 73.9427 256.836 74.5156C257.07 75.0885 257.331 75.6094 257.617 76.0781C258.242 77.1458 259.271 77.9661 260.703 78.5391C261.901 79.138 262.995 79.4375 263.984 79.4375C264.193 79.4375 264.297 79.5547 264.297 79.7891V80.6875C264.297 80.8958 264.193 81 263.984 81H240.078C239.87 81 239.766 80.8958 239.766 80.6875V79.75C239.766 79.5417 240.247 79.4115 241.211 79.3594C242.174 79.3073 242.969 79.2552 243.594 79.2031C247.214 78.8125 249.023 77.5885 249.023 75.5312C249.023 75.375 248.997 75.1927 248.945 74.9844L243.047 58.3438C243.021 58.2917 242.969 58.1745 242.891 57.9922C242.578 57.1068 242.031 56.6641 241.25 56.6641H227.383C226.602 56.6641 225.99 57.0938 225.547 57.9531C225.469 58.1354 225.43 58.2396 225.43 58.2656L219.57 75.4141V75.7656C219.57 76.4427 219.922 77.0547 220.625 77.6016C222.214 78.8255 224.349 79.4375 227.031 79.4375H228.047C228.255 79.4375 228.359 79.5417 228.359 79.75V80.6875ZM239.922 52.3281C240.391 52.3281 240.625 52.1328 240.625 51.7422C240.625 51.5339 240.573 51.2995 240.469 51.0391L234.648 35.0234C234.388 34.3203 234.193 33.9688 234.062 33.9688C233.932 33.9688 233.724 34.3333 233.438 35.0625L227.969 51.0391C227.865 51.2995 227.812 51.5859 227.812 51.8984C227.812 52.1849 228.008 52.3281 228.398 52.3281H239.922Z" fill="#6D1717"/>
<path d="M21.5703 78.4375C21.7266 78.4375 21.8047 78.5417 21.8047 78.75V79.6875C21.8047 79.8958 21.7266 80 21.5703 80H3.32812C3.11979 80 3.01562 79.8958 3.01562 79.6875V78.75C3.01562 78.5417 3.11979 78.4375 3.32812 78.4375C7.59896 78.4375 9.91667 76.6016 10.2812 72.9297C10.3854 71.862 10.4896 70.0911 10.5938 67.6172C10.724 65.1172 11.0755 59.7656 11.6484 51.5625C12.2214 43.3333 12.5078 36.6797 12.5078 31.6016V30.1562C12.5078 29.1146 11.9089 28.2422 10.7109 27.5391C9.53906 26.8359 8.67969 26.4844 8.13281 26.4844C7.58594 26.4844 7.3125 26.3802 7.3125 26.1719V25.2344C7.3125 25.026 7.41667 24.9219 7.625 24.9219H18.9141C19.4089 25 19.8125 25.2865 20.125 25.7812L38.4453 66.6016C38.5755 66.7839 38.6797 66.9401 38.7578 67.0703C38.8359 67.2005 39.0312 67.2656 39.3438 67.2656C39.6562 67.2396 39.8906 67.0052 40.0469 66.5625L58.1719 26.4844C58.7188 25.4427 59.2135 24.9219 59.6562 24.9219H71.0234C71.2318 24.9219 71.3359 25.026 71.3359 25.2344V26.1719C71.3359 26.3802 71.2708 26.4844 71.1406 26.4844C70.3594 26.4844 69.3958 26.7448 68.25 27.2656C66.5052 28.0469 65.6328 29.2057 65.6328 30.7422L67.9766 73.9062C68.0286 75.2604 68.7318 76.3542 70.0859 77.1875C71.4401 78.0208 73.2109 78.4375 75.3984 78.4375C75.6068 78.4375 75.7109 78.5417 75.7109 78.75V79.6875C75.7109 79.8958 75.6068 80 75.3984 80H53.2109C53.0026 80 52.8984 79.8958 52.8984 79.6875V78.75C52.8984 78.5417 53.0026 78.4375 53.2109 78.4375C57.8724 78.4375 60.2031 77.3047 60.2031 75.0391L58.1328 37.7344C58.1068 37.474 58.0286 37.3438 57.8984 37.3438C57.7943 37.3438 57.7031 37.4609 57.625 37.6953L38.2109 79.7266C38.1068 79.9089 37.8073 80 37.3125 80C36.8177 80 36.5312 79.8958 36.4531 79.6875L17.3125 37.5781C17.1562 37.2135 17 37.0312 16.8438 37.0312C16.7135 37.0312 16.6484 37.3177 16.6484 37.8906C16.6484 39.0885 16.3359 44.7396 15.7109 54.8438C15.0859 64.9479 14.7734 71.25 14.7734 73.75V75.3516C15.0859 76.8359 16.5573 77.7995 19.1875 78.2422C19.9427 78.3724 20.737 78.4375 21.5703 78.4375ZM77.6641 79.6875V78.5938C77.6641 78.3854 77.7682 78.2812 77.9766 78.2812H78.8359C79.9297 78.2031 81.0495 78.1641 82.1953 78.1641C83.3411 78.138 84.3828 77.9948 85.3203 77.7344C87.4557 77.1094 88.5234 75.5469 88.5234 73.0469V31.875C88.5234 29.2969 87 27.6562 83.9531 26.9531C83.0938 26.7708 82.2214 26.6146 81.3359 26.4844H80.5156C80.3073 26.4844 80.2031 26.3802 80.2031 26.1719V25.2344C80.2031 25.026 80.3073 24.9219 80.5156 24.9219H117.664C118.133 24.9219 118.471 25.013 118.68 25.1953C118.888 25.3516 119.018 25.7161 119.07 26.2891L119.773 37.6172C119.773 37.8776 119.578 38.0078 119.188 38.0078C118.797 38.0078 118.51 37.8906 118.328 37.6562C118.172 37.3958 117.964 36.4453 117.703 34.8047C117.469 33.1641 117.026 31.7969 116.375 30.7031C115.724 29.6094 114.578 28.9193 112.938 28.6328H96.6484C96.3099 28.6328 96.1406 28.8021 96.1406 29.1406V49.3359C96.1406 49.5964 96.2708 49.7266 96.5312 49.7266H110.047C113.536 49.7266 115.281 47.6953 115.281 43.6328C115.281 43.4245 115.385 43.3203 115.594 43.3203H116.531C116.74 43.3203 116.844 43.4245 116.844 43.6328V60.3516C116.844 60.5599 116.74 60.6641 116.531 60.6641H115.594C115.385 60.6641 115.281 60.5599 115.281 60.3516C115.281 56.4974 114.161 54.2708 111.922 53.6719C111.297 53.5156 110.633 53.4375 109.93 53.4375H96.5312C96.2708 53.4375 96.1406 53.5677 96.1406 53.8281V72.8516C96.1406 74.8047 97.0391 75.9115 98.8359 76.1719C99.3568 76.25 99.9036 76.2891 100.477 76.2891H113.484C116.167 76.2891 118.25 75.1042 119.734 72.7344C120.802 71.0417 121.453 69.1016 121.688 66.9141C121.766 66.1849 122.156 65.8203 122.859 65.8203C123.172 65.8203 123.328 65.9896 123.328 66.3281L122.039 79.4531C121.883 79.8177 121.701 80 121.492 80H77.9766C77.7682 80 77.6641 79.8958 77.6641 79.6875ZM136.609 31.1719C136.609 28.0469 134.812 26.4844 131.219 26.4844C130.646 26.4844 130.359 26.3802 130.359 26.1719V25.2344C130.359 25.026 130.464 24.9219 130.672 24.9219H150.242C150.451 24.9219 150.555 25.026 150.555 25.2344V26.1719C150.555 26.3802 149.982 26.4844 148.836 26.4844C147.69 26.4844 146.635 26.849 145.672 27.5781C144.708 28.3073 144.227 29.8047 144.227 32.0703V73.75C144.227 76.875 146.036 78.4375 149.656 78.4375C150.203 78.4375 150.477 78.5417 150.477 78.75V79.6875C150.477 79.8958 150.372 80 150.164 80H130.594C130.385 80 130.281 79.8958 130.281 79.6875V78.75C130.281 78.5417 130.854 78.4375 132 78.4375C133.146 78.4375 134.201 78.0729 135.164 77.3438C136.128 76.6146 136.609 75.1172 136.609 72.8516V31.1719ZM156.141 80C155.932 80 155.828 79.7396 155.828 79.2188V78.75C155.828 78.5417 155.932 78.4375 156.141 78.4375C156.297 78.4375 156.544 78.4115 156.883 78.3594C157.221 78.3073 157.573 78.2552 157.938 78.2031C158.302 78.151 158.641 78.099 158.953 78.0469C159.266 77.9688 159.487 77.9167 159.617 77.8906C162.273 77.2917 163.602 75.7812 163.602 73.3594V32.1094C163.602 29.8698 162.703 28.2812 160.906 27.3438C159.839 26.7708 158.693 26.4844 157.469 26.4844H155.984C155.776 26.4844 155.672 26.3802 155.672 26.1719V25.2344C155.672 25.026 155.828 24.9219 156.141 24.9219L177.586 24.3359H181.531C186.141 24.6484 189.995 26.3281 193.094 29.375C196.219 32.3958 197.781 36.1328 197.781 40.5859C197.781 45.013 195.932 48.4635 192.234 50.9375C191.089 51.6927 189.852 52.3698 188.523 52.9688L200.359 72.3047C202.417 75.6901 205.177 78.0729 208.641 79.4531C208.927 79.5312 209.07 79.7135 209.07 80C209.07 80.651 208.641 80.9766 207.781 80.9766C201.922 80.9766 197.26 78.75 193.797 74.2969C193.042 73.3073 192.286 72.2005 191.531 70.9766L181.414 55.1172L172.117 54.6875H171.805C171.414 54.6875 171.219 54.8698 171.219 55.2344V73.2422C171.219 74.6745 171.622 75.7422 172.43 76.4453C173.237 77.1484 174.63 77.6302 176.609 77.8906C177.13 77.9688 177.768 78.0859 178.523 78.2422C179.279 78.3724 179.786 78.4375 180.047 78.4375C180.333 78.4375 180.477 78.5417 180.477 78.75V79.6875C180.477 79.8958 180.372 80 180.164 80H156.141ZM174.383 26.4062C174.07 26.4062 173.732 26.4193 173.367 26.4453C173.029 26.4453 172.586 26.4583 172.039 26.4844C171.492 26.4844 171.219 26.6927 171.219 27.1094V50.7812L171.297 51.9531C171.375 52.5 171.622 52.7865 172.039 52.8125L176.023 53.0469C183.341 53.0469 187.755 50.4427 189.266 45.2344C189.76 43.5938 190.008 41.7188 190.008 39.6094C190.008 35.4948 188.719 32.2526 186.141 29.8828C183.589 27.513 180.32 26.3281 176.336 26.3281C175.971 26.3281 175.633 26.3411 175.32 26.3672C175.008 26.3672 174.695 26.3802 174.383 26.4062ZM230.359 79.6875C230.359 79.8958 230.255 80 230.047 80H210.086C209.878 80 209.773 79.8958 209.773 79.6875V78.75C209.773 78.5417 209.943 78.4375 210.281 78.4375C213.849 78.2812 216.258 76.3802 217.508 72.7344L233.445 26.6016C233.471 26.5495 233.484 26.4844 233.484 26.4062L233.055 25.1172C233.055 24.987 233.107 24.9219 233.211 24.9219H241.023C241.076 24.9479 241.141 24.974 241.219 25C241.323 25.026 241.401 25.1042 241.453 25.2344L257.977 71.6016C258.341 72.3047 258.628 72.9427 258.836 73.5156C259.07 74.0885 259.331 74.6094 259.617 75.0781C260.242 76.1458 261.271 76.9661 262.703 77.5391C263.901 78.138 264.995 78.4375 265.984 78.4375C266.193 78.4375 266.297 78.5547 266.297 78.7891V79.6875C266.297 79.8958 266.193 80 265.984 80H242.078C241.87 80 241.766 79.8958 241.766 79.6875V78.75C241.766 78.5417 242.247 78.4115 243.211 78.3594C244.174 78.3073 244.969 78.2552 245.594 78.2031C249.214 77.8125 251.023 76.5885 251.023 74.5312C251.023 74.375 250.997 74.1927 250.945 73.9844L245.047 57.3438C245.021 57.2917 244.969 57.1745 244.891 56.9922C244.578 56.1068 244.031 55.6641 243.25 55.6641H229.383C228.602 55.6641 227.99 56.0938 227.547 56.9531C227.469 57.1354 227.43 57.2396 227.43 57.2656L221.57 74.4141V74.7656C221.57 75.4427 221.922 76.0547 222.625 76.6016C224.214 77.8255 226.349 78.4375 229.031 78.4375H230.047C230.255 78.4375 230.359 78.5417 230.359 78.75V79.6875ZM241.922 51.3281C242.391 51.3281 242.625 51.1328 242.625 50.7422C242.625 50.5339 242.573 50.2995 242.469 50.0391L236.648 34.0234C236.388 33.3203 236.193 32.9688 236.062 32.9688C235.932 32.9688 235.724 33.3333 235.438 34.0625L229.969 50.0391C229.865 50.2995 229.812 50.5859 229.812 50.8984C229.812 51.1849 230.008 51.3281 230.398 51.3281H241.922Z" fill="#B42D2D"/>
<path d="M23.5703 77.4375C23.7266 77.4375 23.8047 77.5417 23.8047 77.75V78.6875C23.8047 78.8958 23.7266 79 23.5703 79H5.32812C5.11979 79 5.01562 78.8958 5.01562 78.6875V77.75C5.01562 77.5417 5.11979 77.4375 5.32812 77.4375C9.59896 77.4375 11.9167 75.6016 12.2812 71.9297C12.3854 70.862 12.4896 69.0911 12.5938 66.6172C12.724 64.1172 13.0755 58.7656 13.6484 50.5625C14.2214 42.3333 14.5078 35.6797 14.5078 30.6016V29.1562C14.5078 28.1146 13.9089 27.2422 12.7109 26.5391C11.5391 25.8359 10.6797 25.4844 10.1328 25.4844C9.58594 25.4844 9.3125 25.3802 9.3125 25.1719V24.2344C9.3125 24.026 9.41667 23.9219 9.625 23.9219H20.9141C21.4089 24 21.8125 24.2865 22.125 24.7812L40.4453 65.6016C40.5755 65.7839 40.6797 65.9401 40.7578 66.0703C40.8359 66.2005 41.0312 66.2656 41.3438 66.2656C41.6562 66.2396 41.8906 66.0052 42.0469 65.5625L60.1719 25.4844C60.7188 24.4427 61.2135 23.9219 61.6562 23.9219H73.0234C73.2318 23.9219 73.3359 24.026 73.3359 24.2344V25.1719C73.3359 25.3802 73.2708 25.4844 73.1406 25.4844C72.3594 25.4844 71.3958 25.7448 70.25 26.2656C68.5052 27.0469 67.6328 28.2057 67.6328 29.7422L69.9766 72.9062C70.0286 74.2604 70.7318 75.3542 72.0859 76.1875C73.4401 77.0208 75.2109 77.4375 77.3984 77.4375C77.6068 77.4375 77.7109 77.5417 77.7109 77.75V78.6875C77.7109 78.8958 77.6068 79 77.3984 79H55.2109C55.0026 79 54.8984 78.8958 54.8984 78.6875V77.75C54.8984 77.5417 55.0026 77.4375 55.2109 77.4375C59.8724 77.4375 62.2031 76.3047 62.2031 74.0391L60.1328 36.7344C60.1068 36.474 60.0286 36.3438 59.8984 36.3438C59.7943 36.3438 59.7031 36.4609 59.625 36.6953L40.2109 78.7266C40.1068 78.9089 39.8073 79 39.3125 79C38.8177 79 38.5312 78.8958 38.4531 78.6875L19.3125 36.5781C19.1562 36.2135 19 36.0312 18.8438 36.0312C18.7135 36.0312 18.6484 36.3177 18.6484 36.8906C18.6484 38.0885 18.3359 43.7396 17.7109 53.8438C17.0859 63.9479 16.7734 70.25 16.7734 72.75V74.3516C17.0859 75.8359 18.5573 76.7995 21.1875 77.2422C21.9427 77.3724 22.737 77.4375 23.5703 77.4375ZM79.6641 78.6875V77.5938C79.6641 77.3854 79.7682 77.2812 79.9766 77.2812H80.8359C81.9297 77.2031 83.0495 77.1641 84.1953 77.1641C85.3411 77.138 86.3828 76.9948 87.3203 76.7344C89.4557 76.1094 90.5234 74.5469 90.5234 72.0469V30.875C90.5234 28.2969 89 26.6562 85.9531 25.9531C85.0938 25.7708 84.2214 25.6146 83.3359 25.4844H82.5156C82.3073 25.4844 82.2031 25.3802 82.2031 25.1719V24.2344C82.2031 24.026 82.3073 23.9219 82.5156 23.9219H119.664C120.133 23.9219 120.471 24.013 120.68 24.1953C120.888 24.3516 121.018 24.7161 121.07 25.2891L121.773 36.6172C121.773 36.8776 121.578 37.0078 121.188 37.0078C120.797 37.0078 120.51 36.8906 120.328 36.6562C120.172 36.3958 119.964 35.4453 119.703 33.8047C119.469 32.1641 119.026 30.7969 118.375 29.7031C117.724 28.6094 116.578 27.9193 114.938 27.6328H98.6484C98.3099 27.6328 98.1406 27.8021 98.1406 28.1406V48.3359C98.1406 48.5964 98.2708 48.7266 98.5312 48.7266H112.047C115.536 48.7266 117.281 46.6953 117.281 42.6328C117.281 42.4245 117.385 42.3203 117.594 42.3203H118.531C118.74 42.3203 118.844 42.4245 118.844 42.6328V59.3516C118.844 59.5599 118.74 59.6641 118.531 59.6641H117.594C117.385 59.6641 117.281 59.5599 117.281 59.3516C117.281 55.4974 116.161 53.2708 113.922 52.6719C113.297 52.5156 112.633 52.4375 111.93 52.4375H98.5312C98.2708 52.4375 98.1406 52.5677 98.1406 52.8281V71.8516C98.1406 73.8047 99.0391 74.9115 100.836 75.1719C101.357 75.25 101.904 75.2891 102.477 75.2891H115.484C118.167 75.2891 120.25 74.1042 121.734 71.7344C122.802 70.0417 123.453 68.1016 123.688 65.9141C123.766 65.1849 124.156 64.8203 124.859 64.8203C125.172 64.8203 125.328 64.9896 125.328 65.3281L124.039 78.4531C123.883 78.8177 123.701 79 123.492 79H79.9766C79.7682 79 79.6641 78.8958 79.6641 78.6875ZM138.609 30.1719C138.609 27.0469 136.812 25.4844 133.219 25.4844C132.646 25.4844 132.359 25.3802 132.359 25.1719V24.2344C132.359 24.026 132.464 23.9219 132.672 23.9219H152.242C152.451 23.9219 152.555 24.026 152.555 24.2344V25.1719C152.555 25.3802 151.982 25.4844 150.836 25.4844C149.69 25.4844 148.635 25.849 147.672 26.5781C146.708 27.3073 146.227 28.8047 146.227 31.0703V72.75C146.227 75.875 148.036 77.4375 151.656 77.4375C152.203 77.4375 152.477 77.5417 152.477 77.75V78.6875C152.477 78.8958 152.372 79 152.164 79H132.594C132.385 79 132.281 78.8958 132.281 78.6875V77.75C132.281 77.5417 132.854 77.4375 134 77.4375C135.146 77.4375 136.201 77.0729 137.164 76.3438C138.128 75.6146 138.609 74.1172 138.609 71.8516V30.1719ZM158.141 79C157.932 79 157.828 78.7396 157.828 78.2188V77.75C157.828 77.5417 157.932 77.4375 158.141 77.4375C158.297 77.4375 158.544 77.4115 158.883 77.3594C159.221 77.3073 159.573 77.2552 159.938 77.2031C160.302 77.151 160.641 77.099 160.953 77.0469C161.266 76.9688 161.487 76.9167 161.617 76.8906C164.273 76.2917 165.602 74.7812 165.602 72.3594V31.1094C165.602 28.8698 164.703 27.2812 162.906 26.3438C161.839 25.7708 160.693 25.4844 159.469 25.4844H157.984C157.776 25.4844 157.672 25.3802 157.672 25.1719V24.2344C157.672 24.026 157.828 23.9219 158.141 23.9219L179.586 23.3359H183.531C188.141 23.6484 191.995 25.3281 195.094 28.375C198.219 31.3958 199.781 35.1328 199.781 39.5859C199.781 44.013 197.932 47.4635 194.234 49.9375C193.089 50.6927 191.852 51.3698 190.523 51.9688L202.359 71.3047C204.417 74.6901 207.177 77.0729 210.641 78.4531C210.927 78.5312 211.07 78.7135 211.07 79C211.07 79.651 210.641 79.9766 209.781 79.9766C203.922 79.9766 199.26 77.75 195.797 73.2969C195.042 72.3073 194.286 71.2005 193.531 69.9766L183.414 54.1172L174.117 53.6875H173.805C173.414 53.6875 173.219 53.8698 173.219 54.2344V72.2422C173.219 73.6745 173.622 74.7422 174.43 75.4453C175.237 76.1484 176.63 76.6302 178.609 76.8906C179.13 76.9688 179.768 77.0859 180.523 77.2422C181.279 77.3724 181.786 77.4375 182.047 77.4375C182.333 77.4375 182.477 77.5417 182.477 77.75V78.6875C182.477 78.8958 182.372 79 182.164 79H158.141ZM176.383 25.4062C176.07 25.4062 175.732 25.4193 175.367 25.4453C175.029 25.4453 174.586 25.4583 174.039 25.4844C173.492 25.4844 173.219 25.6927 173.219 26.1094V49.7812L173.297 50.9531C173.375 51.5 173.622 51.7865 174.039 51.8125L178.023 52.0469C185.341 52.0469 189.755 49.4427 191.266 44.2344C191.76 42.5938 192.008 40.7188 192.008 38.6094C192.008 34.4948 190.719 31.2526 188.141 28.8828C185.589 26.513 182.32 25.3281 178.336 25.3281C177.971 25.3281 177.633 25.3411 177.32 25.3672C177.008 25.3672 176.695 25.3802 176.383 25.4062ZM232.359 78.6875C232.359 78.8958 232.255 79 232.047 79H212.086C211.878 79 211.773 78.8958 211.773 78.6875V77.75C211.773 77.5417 211.943 77.4375 212.281 77.4375C215.849 77.2812 218.258 75.3802 219.508 71.7344L235.445 25.6016C235.471 25.5495 235.484 25.4844 235.484 25.4062L235.055 24.1172C235.055 23.987 235.107 23.9219 235.211 23.9219H243.023C243.076 23.9479 243.141 23.974 243.219 24C243.323 24.026 243.401 24.1042 243.453 24.2344L259.977 70.6016C260.341 71.3047 260.628 71.9427 260.836 72.5156C261.07 73.0885 261.331 73.6094 261.617 74.0781C262.242 75.1458 263.271 75.9661 264.703 76.5391C265.901 77.138 266.995 77.4375 267.984 77.4375C268.193 77.4375 268.297 77.5547 268.297 77.7891V78.6875C268.297 78.8958 268.193 79 267.984 79H244.078C243.87 79 243.766 78.8958 243.766 78.6875V77.75C243.766 77.5417 244.247 77.4115 245.211 77.3594C246.174 77.3073 246.969 77.2552 247.594 77.2031C251.214 76.8125 253.023 75.5885 253.023 73.5312C253.023 73.375 252.997 73.1927 252.945 72.9844L247.047 56.3438C247.021 56.2917 246.969 56.1745 246.891 55.9922C246.578 55.1068 246.031 54.6641 245.25 54.6641H231.383C230.602 54.6641 229.99 55.0938 229.547 55.9531C229.469 56.1354 229.43 56.2396 229.43 56.2656L223.57 73.4141V73.7656C223.57 74.4427 223.922 75.0547 224.625 75.6016C226.214 76.8255 228.349 77.4375 231.031 77.4375H232.047C232.255 77.4375 232.359 77.5417 232.359 77.75V78.6875ZM243.922 50.3281C244.391 50.3281 244.625 50.1328 244.625 49.7422C244.625 49.5339 244.573 49.2995 244.469 49.0391L238.648 33.0234C238.388 32.3203 238.193 31.9688 238.062 31.9688C237.932 31.9688 237.724 32.3333 237.438 33.0625L231.969 49.0391C231.865 49.2995 231.812 49.5859 231.812 49.8984C231.812 50.1849 232.008 50.3281 232.398 50.3281H243.922Z" fill="white"/>
</svg>
